<?xml version="1.0" encoding="utf-8"?>
<!-- Generator: Adobe Illustrator 26.0.1, SVG Export Plug-In . SVG Version: 6.00 Build 0)  -->
<svg version="1.1" id="Layer_1" xmlns="http://www.w3.org/2000/svg" xmlns:xlink="http://www.w3.org/1999/xlink" x="0px" y="0px"
	 viewBox="0 0 631.8 107.7" style="enable-background:new 0 0 631.8 107.7;" xml:space="preserve">
<style type="text/css">
	.st0{enable-background:new    ;}
	.st1{fill:#99D4DB;}
	.st2{fill:#7ABF86;}
</style>
<g class="st0">
	<path class="st1" d="M238.3,43.3l-1-6.7h-11.7l-3.9,6.7h-6.1l19.9-33.3h2.1l6.7,33.3H238.3z M234.8,20L228,32.3h8.6L234.8,20z"/>
	<path class="st1" d="M257.5,43.8c-2.4,0-4.1-0.8-5.2-2.3l-1.8,1.8h-4.1c1.4-3.7,2.4-6.9,2.9-9.9l4.3-24h5.5l-1.9,10.7
		c1.4-0.9,3.1-1.3,5.1-1.3c3,0,5.4,1,7.1,3c1.6,1.9,2.5,4.4,2.5,7.4c0,4-1.4,7.4-4.2,10.2C264.9,42.4,261.5,43.8,257.5,43.8z
		 M260.1,23.6c-1.5,0-2.8,0.6-3.9,1.9L254,37.4c0.6,1.2,1.7,1.7,3.4,1.7c2.6,0,4.7-0.9,6.3-2.8c1.5-1.8,2.2-4,2.2-6.7
		C265.8,25.6,263.9,23.6,260.1,23.6z"/>
	<path class="st1" d="M274.7,34.3c0-4.3,1.3-8,4-11c2.6-3,6-4.5,10-4.5c3.1,0,5.5,0.8,7.1,2.4c1.7,1.6,2.5,3.9,2.5,6.8
		c0,4.4-1.3,8.1-3.9,11.1c-2.6,3-6,4.5-10.1,4.5c-3,0-5.4-0.8-7.1-2.4C275.6,39.7,274.7,37.4,274.7,34.3z M280.5,34.1
		c0,3.4,1.5,5.1,4.4,5.1c2.3,0,4.2-1.1,5.5-3.2c1.4-2.2,2-4.7,2-7.7c0-3.2-1.5-4.8-4.4-4.8c-2.3,0-4.1,1.1-5.5,3.2
		C281.2,28.8,280.5,31.3,280.5,34.1z"/>
	<path class="st1" d="M320,43.3h-5.6l0.3-1.7c-2,1.4-4.5,2.2-7.5,2.2c-2.1,0-3.7-0.6-4.8-1.8c-1.2-1.2-1.8-2.8-1.8-4.9
		c0-0.7,0.1-1.4,0.2-2.3l2.9-15.5h5.7l-2.8,15.2c-0.1,0.6-0.2,1.2-0.2,1.6c0,1.9,1.1,2.9,3.3,2.9c1.8,0,3.3-0.6,4.5-1.7
		c1.2-1.2,2-2.5,2.3-4.2l2.5-13.9h5.6L320,43.3z"/>
	<path class="st1" d="M343.6,23.8H337l-2.4,10.6c-0.2,0.9-0.3,1.6-0.3,2.1c0,1.6,0.9,2.5,2.8,2.5c0.8,0,2.2-0.4,4-1.2v5
		c-1.6,0.6-3.8,0.8-6.6,0.8c-1.8,0-3.3-0.6-4.4-1.7s-1.7-2.6-1.7-4.4c0-0.6,0.1-1.2,0.2-1.8l2.7-12h-2.8l1-4.5h2.8l0.9-4.9l6.4-2.3
		l-1.7,7.2h6.6L343.6,23.8z"/>
	<path class="st1" d="M386.5,43.3l-0.4-17.8l-10,18.2h-2l-3.2-18.4L364,43.3h-5.6l12.2-32.8h3.3l3.3,20.8l10.8-20.8h3.4l0.9,32.8
		H386.5z"/>
	<path class="st1" d="M402.4,32.9c0,0.4,0,0.7,0,1c0,1.7,0.5,3,1.5,3.9c1,0.9,2.4,1.3,4.1,1.3c0.9,0,2-0.3,3.2-0.8s2.2-1.1,2.9-1.7
		l-0.6,5.9c-1.9,0.9-4.2,1.3-6.9,1.3c-3,0-5.4-0.9-7.2-2.8c-1.8-1.9-2.8-4.4-2.8-7.7c0-4.1,1.3-7.5,4-10.3c2.6-2.7,6.1-4.1,10.4-4.1
		c2.5,0,4.6,0.5,6.1,1.6s2.4,2.6,2.4,4.6c0,2.7-1.2,4.8-3.5,6.4c-2.3,1.5-5.2,2.3-8.6,2.3C405.7,33.7,404,33.5,402.4,32.9z
		 M403.5,28.7c1,0.3,2,0.4,3.2,0.4c2,0,3.7-0.3,5.1-0.9s2.1-1.5,2.1-2.7c0-1.3-1.4-1.9-4.3-1.9c-1.1,0-2.3,0.5-3.4,1.5
		C405.1,26,404.2,27.2,403.5,28.7z"/>
</g>
<rect y="33.4" class="st1" width="198.4" height="3.4"/>
<rect x="433.4" y="33.4" class="st1" width="198.4" height="3.4"/>
<g>
	<g>
		<path class="st2" d="M141.6,68.8c-0.7-0.5-1.5-0.8-2.4-0.8c-1.4,0-2.6,0.7-3.5,2s-1.4,2.8-1.4,4.4c0,1,0.3,1.9,0.8,2.5
			c0.5,0.6,1.2,0.9,2.2,0.9c1.4,0,2.5-0.4,3.4-1.2l0,2.1c-0.9,0.8-2.2,1.2-3.8,1.2c-1.5,0-2.7-0.5-3.6-1.5c-0.9-1-1.4-2.2-1.4-3.8
			c0-2.5,0.7-4.6,2.1-6.3c1.4-1.7,3.2-2.6,5.5-2.6c1.1,0,2.1,0.2,2.9,0.5L141.6,68.8z"/>
		<path class="st2" d="M150.3,73.7l3,6h-2.7l-2.6-5.6c-0.4,0-0.9,0-1.6-0.1l-1.1,5.7h-2.5l2.5-13.6c1.8-0.1,3-0.1,3.6-0.1
			c1.5,0,2.6,0.3,3.5,0.9c0.9,0.6,1.3,1.4,1.3,2.5c0,1.1-0.3,2-0.9,2.8S151.3,73.5,150.3,73.7z M147.5,68.2l-0.7,3.8
			c0.4,0,0.7,0.1,1,0.1c2.3,0,3.5-0.7,3.5-2.2c0-0.6-0.2-1.1-0.7-1.3c-0.5-0.3-1.2-0.4-2.2-0.4C148.3,68.1,148,68.2,147.5,68.2z"/>
		<path class="st2" d="M165.6,68.3h-6.3l-0.6,3.1h4.5l-0.4,2h-4.5l-0.8,4.2h6.2l-0.4,2.1h-8.7l2.5-13.6h8.8L165.6,68.3z"/>
		<path class="st2" d="M174.2,79.8l-0.4-2.8h-4.9l-1.6,2.8h-2.5L173,66h0.9l2.8,13.8H174.2z M172.7,70.1l-2.8,5.1h3.6L172.7,70.1z"
			/>
		<path class="st2" d="M188.6,68.3h-4.3l-2.1,11.5h-2.4l2.1-11.5h-4.3l0.4-2.1H189L188.6,68.3z"/>
		<path class="st2" d="M191.7,79.8h-2.4l2.5-13.6h2.4L191.7,79.8z"/>
		<path class="st2" d="M200.2,80h-1.3l-2.7-13.8h2.6l1.6,9l4.8-9h2.7L200.2,80z"/>
		<path class="st2" d="M218.3,68.3H212l-0.6,3.1h4.5l-0.4,2H211l-0.8,4.2h6.2l-0.4,2.1h-8.7l2.5-13.6h8.8L218.3,68.3z"/>
		<path class="st2" d="M252.1,68.8c-0.7-0.5-1.5-0.8-2.4-0.8c-1.4,0-2.6,0.7-3.5,2s-1.4,2.8-1.4,4.4c0,1,0.3,1.9,0.8,2.5
			c0.5,0.6,1.2,0.9,2.2,0.9c1.4,0,2.5-0.4,3.4-1.2l0,2.1c-0.9,0.8-2.2,1.2-3.8,1.2c-1.5,0-2.7-0.5-3.6-1.5c-0.9-1-1.4-2.2-1.4-3.8
			c0-2.5,0.7-4.6,2.1-6.3c1.4-1.7,3.2-2.6,5.5-2.6c1.1,0,2.1,0.2,2.9,0.5L252.1,68.8z"/>
		<path class="st2" d="M264.3,75.6c-0.3,1.4-0.9,2.5-2,3.3c-1,0.8-2.3,1.2-3.9,1.2c-1.3,0-2.3-0.3-3.1-0.9s-1.2-1.5-1.2-2.6
			c0-0.3,0-0.7,0.1-1.1l1.7-9.3h2.5l-1.7,9.3c0,0.2,0,0.3,0,0.5c0,0.6,0.2,1.1,0.6,1.4c0.4,0.3,0.9,0.5,1.5,0.5
			c0.8,0,1.5-0.2,2.1-0.7c0.6-0.5,0.9-1.1,1.1-1.9l1.7-9.2h2.5L264.3,75.6z"/>
		<path class="st2" d="M273.4,73.7l3,6h-2.7l-2.6-5.6c-0.4,0-0.9,0-1.6-0.1l-1.1,5.7H266l2.5-13.6c1.8-0.1,3-0.1,3.6-0.1
			c1.5,0,2.6,0.3,3.5,0.9c0.9,0.6,1.3,1.4,1.3,2.5c0,1.1-0.3,2-0.9,2.8S274.5,73.5,273.4,73.7z M270.6,68.2l-0.7,3.8
			c0.4,0,0.7,0.1,1,0.1c2.3,0,3.5-0.7,3.5-2.2c0-0.6-0.2-1.1-0.7-1.3c-0.5-0.3-1.2-0.4-2.2-0.4C271.4,68.1,271.1,68.2,270.6,68.2z"
			/>
		<path class="st2" d="M280.5,79.8h-2.4l2.5-13.6h2.4L280.5,79.8z"/>
		<path class="st2" d="M283.7,74.7c0-2.4,0.7-4.5,2-6.2c1.3-1.7,3-2.6,5.2-2.6c1.6,0,2.9,0.4,3.8,1.3c0.9,0.9,1.3,2.1,1.3,3.8
			c0,2.7-0.7,4.9-2,6.5c-1.4,1.7-3.2,2.5-5.6,2.5c-1.4,0-2.6-0.5-3.4-1.5C284.1,77.6,283.7,76.3,283.7,74.7z M286.2,74.5
			c0,1,0.2,1.9,0.6,2.5c0.4,0.6,1,0.9,1.8,0.9c1.5,0,2.6-0.7,3.5-2c0.9-1.3,1.3-2.9,1.3-4.8c0-2.1-0.9-3.1-2.8-3.1
			c-1.3,0-2.4,0.7-3.2,2C286.6,71.4,286.2,72.9,286.2,74.5z"/>
		<path class="st2" d="M307.5,75.6c-0.3,1.4-0.9,2.5-2,3.3c-1,0.8-2.3,1.2-3.9,1.2c-1.3,0-2.3-0.3-3.1-0.9s-1.2-1.5-1.2-2.6
			c0-0.3,0-0.7,0.1-1.1l1.7-9.3h2.5l-1.7,9.3c0,0.2,0,0.3,0,0.5c0,0.6,0.2,1.1,0.6,1.4c0.4,0.3,0.9,0.5,1.5,0.5
			c0.8,0,1.5-0.2,2.1-0.7c0.6-0.5,0.9-1.1,1.1-1.9l1.7-9.2h2.5L307.5,75.6z"/>
		<path class="st2" d="M317.5,68.8c-0.7-0.5-1.5-0.8-2.2-0.8c-1.5,0-2.2,0.6-2.2,1.7c0,0.5,0.4,1,1.2,1.7l1.4,1.2
			c0.4,0.4,0.7,0.6,0.9,0.8c0.2,0.2,0.3,0.4,0.5,0.7c0.2,0.3,0.3,0.6,0.4,0.9c0.1,0.3,0.1,0.6,0.1,0.9c0,1.2-0.5,2.2-1.4,2.9
			c-0.9,0.7-2.1,1.1-3.6,1.1c-1.2,0-2.4-0.3-3.5-0.8l0.8-2.4c0.8,0.6,1.8,0.9,2.9,0.9c0.7,0,1.2-0.1,1.7-0.4
			c0.4-0.3,0.7-0.7,0.7-1.2c0-0.5-0.4-1.1-1.2-1.7l-1.5-1.2c-0.4-0.4-0.7-0.6-0.9-0.8s-0.3-0.4-0.5-0.7c-0.2-0.3-0.3-0.6-0.4-0.9
			s-0.1-0.6-0.1-0.9c0-1.3,0.4-2.2,1.2-3c0.8-0.7,1.9-1.1,3.3-1.1c0.4,0,1,0.1,1.7,0.2c0.7,0.1,1.2,0.2,1.5,0.3L317.5,68.8z"/>
		<path class="st2" d="M345,79.8h-3.3l2.5-13.6c0.9-0.2,1.8-0.2,2.5-0.2c2.1,0,3.7,0.5,4.8,1.4c1.1,0.9,1.7,2.3,1.7,4.1
			c0,2.5-0.8,4.5-2.3,6S347.5,79.8,345,79.8z M346.2,68.1l-1.7,9.5c0.3,0,0.5,0,0.7,0c1.7,0,3-0.6,4-1.8s1.5-2.7,1.5-4.5
			c0-1-0.3-1.8-1-2.4c-0.7-0.6-1.5-0.9-2.6-0.9C346.8,68,346.5,68.1,346.2,68.1z"/>
		<path class="st2" d="M361.2,73.7l3,6h-2.7l-2.6-5.6c-0.4,0-0.9,0-1.6-0.1l-1.1,5.7h-2.5l2.5-13.6c1.8-0.1,3-0.1,3.6-0.1
			c1.5,0,2.6,0.3,3.5,0.9c0.9,0.6,1.3,1.4,1.3,2.5c0,1.1-0.3,2-0.9,2.8S362.2,73.5,361.2,73.7z M358.4,68.2l-0.7,3.8
			c0.4,0,0.7,0.1,1,0.1c2.3,0,3.5-0.7,3.5-2.2c0-0.6-0.2-1.1-0.7-1.3c-0.5-0.3-1.2-0.4-2.2-0.4C359.2,68.1,358.9,68.2,358.4,68.2z"
			/>
		<path class="st2" d="M376.5,68.3h-6.3l-0.6,3.1h4.5l-0.4,2h-4.5l-0.8,4.2h6.2l-0.4,2.1h-8.7l2.5-13.6h8.8L376.5,68.3z"/>
		<path class="st2" d="M385.1,79.8l-0.4-2.8h-4.9l-1.6,2.8h-2.5l8.3-13.8h0.9l2.8,13.8H385.1z M383.6,70.1l-2.8,5.1h3.6L383.6,70.1z
			"/>
		<path class="st2" d="M399.8,79.8l-0.2-7.4l-4.1,7.6h-0.8l-1.3-7.6l-2.9,7.5h-2.3l5.1-13.6h1.4l1.4,8.6l4.5-8.6h1.4l0.4,13.6H399.8
			z"/>
		<path class="st2" d="M414.5,68.3h-6.3l-0.6,3.1h4.5l-0.4,2h-4.5l-0.8,4.2h6.2l-0.4,2.1h-8.7l2.5-13.6h8.8L414.5,68.3z"/>
		<path class="st2" d="M422.4,73.7l3,6h-2.7l-2.6-5.6c-0.4,0-0.9,0-1.6-0.1l-1.1,5.7H415l2.5-13.6c1.8-0.1,3-0.1,3.6-0.1
			c1.5,0,2.6,0.3,3.5,0.9c0.9,0.6,1.3,1.4,1.3,2.5c0,1.1-0.3,2-0.9,2.8S423.4,73.5,422.4,73.7z M419.6,68.2l-0.7,3.8
			c0.4,0,0.7,0.1,1,0.1c2.3,0,3.5-0.7,3.5-2.2c0-0.6-0.2-1.1-0.7-1.3c-0.5-0.3-1.2-0.4-2.2-0.4C420.4,68.1,420.1,68.2,419.6,68.2z"
			/>
		<path class="st2" d="M460.9,68.3h-6.6l-0.6,3.1h4.8l-0.4,2h-4.8l-1.2,6.3h-2.5l2.5-13.6h9L460.9,68.3z"/>
		<path class="st2" d="M471.9,75.6c-0.3,1.4-0.9,2.5-2,3.3c-1,0.8-2.3,1.2-3.9,1.2c-1.3,0-2.3-0.3-3.1-0.9s-1.2-1.5-1.2-2.6
			c0-0.3,0-0.7,0.1-1.1l1.7-9.3h2.5l-1.7,9.3c0,0.2,0,0.3,0,0.5c0,0.6,0.2,1.1,0.6,1.4c0.4,0.3,0.9,0.5,1.5,0.5
			c0.8,0,1.5-0.2,2.1-0.7c0.6-0.5,0.9-1.1,1.1-1.9l1.7-9.2h2.5L471.9,75.6z"/>
		<path class="st2" d="M483.5,80h-0.9l-5-8.8l-1.5,8.6h-2.4l2.5-13.6h1.1l4.9,8.5l1.5-8.5h2.4L483.5,80z"/>
		<path class="st2" d="M92.3,101.4c-1.4,1-3.1,1.5-5.1,1.5c-1.6,0-2.8-0.5-3.8-1.5s-1.5-2.3-1.5-3.8c0-2.7,0.7-4.8,2.2-6.4
			s3.5-2.4,6.1-2.4c1.4,0,2.4,0.3,3.1,0.9l-0.7,2c-0.9-0.6-1.8-0.8-2.7-0.8c-1.6,0-3,0.6-3.9,1.8c-1,1.2-1.5,2.7-1.5,4.5
			c0,1.1,0.3,2,0.9,2.6c0.6,0.6,1.5,0.9,2.5,0.9c0.9,0,1.7-0.2,2.3-0.7l0.5-2.7h-1.9l0.4-2h4.3L92.3,101.4z"/>
		<path class="st2" d="M102.5,102.7l-0.4-2.8h-4.9l-1.6,2.8h-2.5l8.3-13.8h0.9l2.8,13.8H102.5z M101.1,93l-2.8,5.1h3.6L101.1,93z"/>
		<path class="st2" d="M117.2,102.7l-0.2-7.4l-4.1,7.6h-0.8l-1.3-7.6l-2.9,7.5h-2.3l5.1-13.6h1.4l1.4,8.6l4.5-8.6h1.4l0.4,13.6
			H117.2z"/>
		<path class="st2" d="M132,91.1h-6.3l-0.6,3.1h4.5l-0.4,2h-4.5l-0.8,4.2h6.2l-0.4,2.1h-8.7l2.5-13.6h8.8L132,91.1z"/>
		<path class="st2" d="M139.9,96.6l3,6h-2.7l-2.6-5.6c-0.4,0-0.9,0-1.6-0.1l-1.1,5.7h-2.5L135,89c1.8-0.1,3-0.1,3.6-0.1
			c1.5,0,2.6,0.3,3.5,0.9c0.9,0.6,1.3,1.4,1.3,2.5c0,1.1-0.3,2-0.9,2.8S140.9,96.4,139.9,96.6z M137.1,91.1l-0.7,3.8
			c0.4,0,0.7,0.1,1,0.1c2.3,0,3.5-0.7,3.5-2.2c0-0.6-0.2-1.1-0.7-1.3c-0.5-0.3-1.2-0.4-2.2-0.4C137.9,91,137.6,91.1,137.1,91.1z"/>
		<path class="st2" d="M178.1,91.1h-6.3l-0.6,3.1h4.5l-0.4,2h-4.5l-0.8,4.2h6.2l-0.4,2.1h-8.7l2.5-13.6h8.8L178.1,91.1z"/>
		<path class="st2" d="M188.5,102.8h-0.9l-5-8.8l-1.5,8.6h-2.4l2.5-13.6h1.1l4.9,8.5l1.5-8.5h2.4L188.5,102.8z"/>
		<path class="st2" d="M203.7,91.1h-4.3l-2.1,11.5h-2.4l2.1-11.5h-4.3L193,89h11.1L203.7,91.1z"/>
		<path class="st2" d="M214.6,102.7h-2.4l1.2-6.3h-5.4l-1.2,6.3h-2.5l2.5-13.6h2.5l-1,5.3h5.4l1-5.3h2.5L214.6,102.7z"/>
		<path class="st2" d="M228.1,98.5c-0.3,1.4-0.9,2.5-2,3.3c-1,0.8-2.3,1.2-3.9,1.2c-1.3,0-2.3-0.3-3.1-0.9s-1.2-1.5-1.2-2.6
			c0-0.3,0-0.7,0.1-1.1l1.7-9.3h2.5l-1.7,9.3c0,0.2,0,0.3,0,0.5c0,0.6,0.2,1.1,0.6,1.4c0.4,0.3,0.9,0.5,1.5,0.5
			c0.8,0,1.5-0.2,2.1-0.7c0.6-0.5,0.9-1.1,1.1-1.9l1.7-9.2h2.5L228.1,98.5z"/>
		<path class="st2" d="M237.9,102.7l-0.4-2.8h-4.9l-1.6,2.8h-2.5l8.3-13.8h0.9l2.8,13.8H237.9z M236.4,93l-2.8,5.1h3.6L236.4,93z"/>
		<path class="st2" d="M249.8,91.7c-0.7-0.5-1.5-0.8-2.2-0.8c-1.5,0-2.2,0.6-2.2,1.7c0,0.5,0.4,1,1.2,1.7l1.4,1.2
			c0.4,0.4,0.7,0.6,0.9,0.8c0.2,0.2,0.3,0.4,0.5,0.7c0.2,0.3,0.3,0.6,0.4,0.9c0.1,0.3,0.1,0.6,0.1,0.9c0,1.2-0.5,2.2-1.4,2.9
			c-0.9,0.7-2.1,1.1-3.6,1.1c-1.2,0-2.4-0.3-3.5-0.8l0.8-2.4c0.8,0.6,1.8,0.9,2.9,0.9c0.7,0,1.2-0.1,1.7-0.4
			c0.4-0.3,0.7-0.7,0.7-1.2c0-0.5-0.4-1.1-1.2-1.7l-1.5-1.2c-0.4-0.4-0.7-0.6-0.9-0.8s-0.3-0.4-0.5-0.7c-0.2-0.3-0.3-0.6-0.4-0.9
			s-0.1-0.6-0.1-0.9c0-1.3,0.4-2.2,1.2-3c0.8-0.7,1.9-1.1,3.3-1.1c0.4,0,1,0.1,1.7,0.2c0.7,0.1,1.2,0.2,1.5,0.3L249.8,91.7z"/>
		<path class="st2" d="M263.5,91.1h-4.3l-2.1,11.5h-2.4l2.1-11.5h-4.3l0.4-2.1H264L263.5,91.1z"/>
		<path class="st2" d="M290.5,97.6l-0.9,5h-2.5l2.6-13.6c1.3-0.1,2.3-0.2,3-0.2c3.6,0,5.4,1.4,5.4,4.1c0,1.5-0.5,2.7-1.6,3.6
			c-1.1,0.9-2.5,1.3-4.3,1.3C291.6,97.8,291,97.8,290.5,97.6z M291.7,91.1l-0.8,4.5c0.3,0.1,0.7,0.1,1.2,0.1c1.1,0,1.9-0.2,2.5-0.7
			c0.6-0.5,0.9-1.1,0.9-2c0-1.4-0.8-2.1-2.4-2.1C292.6,90.9,292.2,91,291.7,91.1z"/>
		<path class="st2" d="M309.1,98.5c-0.3,1.4-0.9,2.5-2,3.3c-1,0.8-2.3,1.2-3.9,1.2c-1.3,0-2.3-0.3-3.1-0.9s-1.2-1.5-1.2-2.6
			c0-0.3,0-0.7,0.1-1.1l1.7-9.3h2.5l-1.7,9.3c0,0.2,0,0.3,0,0.5c0,0.6,0.2,1.1,0.6,1.4c0.4,0.3,0.9,0.5,1.5,0.5
			c0.8,0,1.5-0.2,2.1-0.7c0.6-0.5,0.9-1.1,1.1-1.9l1.7-9.2h2.5L309.1,98.5z"/>
		<path class="st2" d="M320.7,102.8h-0.9l-5-8.8l-1.5,8.6h-2.4l2.5-13.6h1.1l4.9,8.5l1.5-8.5h2.4L320.7,102.8z"/>
		<path class="st2" d="M333.8,91.6c-0.7-0.5-1.5-0.8-2.4-0.8c-1.4,0-2.6,0.7-3.5,2s-1.4,2.8-1.4,4.4c0,1,0.3,1.9,0.8,2.5
			c0.5,0.6,1.2,0.9,2.2,0.9c1.4,0,2.5-0.4,3.4-1.2l0,2.1c-0.9,0.8-2.2,1.2-3.8,1.2c-1.5,0-2.7-0.5-3.6-1.5c-0.9-1-1.4-2.2-1.4-3.8
			c0-2.5,0.7-4.6,2.1-6.3c1.4-1.7,3.2-2.6,5.5-2.6c1.1,0,2.1,0.2,2.9,0.5L333.8,91.6z"/>
		<path class="st2" d="M347.6,91.1h-4.3l-2.1,11.5h-2.4l2.1-11.5h-4.3l0.4-2.1H348L347.6,91.1z"/>
		<path class="st2" d="M359,98.5c-0.3,1.4-0.9,2.5-2,3.3c-1,0.8-2.3,1.2-3.9,1.2c-1.3,0-2.3-0.3-3.1-0.9s-1.2-1.5-1.2-2.6
			c0-0.3,0-0.7,0.1-1.1l1.7-9.3h2.5l-1.7,9.3c0,0.2,0,0.3,0,0.5c0,0.6,0.2,1.1,0.6,1.4c0.4,0.3,0.9,0.5,1.5,0.5
			c0.8,0,1.5-0.2,2.1-0.7c0.6-0.5,0.9-1.1,1.1-1.9l1.7-9.2h2.5L359,98.5z"/>
		<path class="st2" d="M368.8,102.7l-0.4-2.8h-4.9l-1.6,2.8h-2.5l8.3-13.8h0.9l2.8,13.8H368.8z M367.4,93l-2.8,5.1h3.6L367.4,93z"/>
		<path class="st2" d="M381.1,102.7h-8.6L375,89h2.4l-2.1,11.5h6.2L381.1,102.7z"/>
		<path class="st2" d="M408.6,97.6l-0.9,5h-2.5l2.6-13.6c1.3-0.1,2.3-0.2,3-0.2c3.6,0,5.4,1.4,5.4,4.1c0,1.5-0.5,2.7-1.6,3.6
			c-1.1,0.9-2.5,1.3-4.3,1.3C409.6,97.8,409.1,97.8,408.6,97.6z M409.7,91.1l-0.8,4.5c0.3,0.1,0.7,0.1,1.2,0.1
			c1.1,0,1.9-0.2,2.5-0.7c0.6-0.5,0.9-1.1,0.9-2c0-1.4-0.8-2.1-2.4-2.1C410.7,90.9,410.3,91,409.7,91.1z"/>
		<path class="st2" d="M423.7,96.6l3,6H424l-2.6-5.6c-0.4,0-0.9,0-1.6-0.1l-1.1,5.7h-2.5l2.5-13.6c1.8-0.1,3-0.1,3.6-0.1
			c1.5,0,2.6,0.3,3.5,0.9c0.9,0.6,1.3,1.4,1.3,2.5c0,1.1-0.3,2-0.9,2.8S424.7,96.4,423.7,96.6z M420.9,91.1l-0.7,3.8
			c0.4,0,0.7,0.1,1,0.1c2.3,0,3.5-0.7,3.5-2.2c0-0.6-0.2-1.1-0.7-1.3c-0.5-0.3-1.2-0.4-2.2-0.4C421.7,91,421.4,91.1,420.9,91.1z"/>
		<path class="st2" d="M428.6,97.6c0-2.4,0.7-4.5,2-6.2c1.3-1.7,3-2.6,5.2-2.6c1.6,0,2.9,0.4,3.8,1.3c0.9,0.9,1.3,2.1,1.3,3.8
			c0,2.7-0.7,4.9-2,6.5c-1.4,1.7-3.2,2.5-5.6,2.5c-1.4,0-2.6-0.5-3.4-1.5C429.1,100.5,428.6,99.2,428.6,97.6z M431.1,97.3
			c0,1,0.2,1.9,0.6,2.5c0.4,0.6,1,0.9,1.8,0.9c1.5,0,2.6-0.7,3.5-2c0.9-1.3,1.3-2.9,1.3-4.8c0-2.1-0.9-3.1-2.8-3.1
			c-1.3,0-2.4,0.7-3.2,2C431.6,94.3,431.1,95.8,431.1,97.3z"/>
		<path class="st2" d="M452.6,91.1h-6.6l-0.6,3.1h4.8l-0.4,2h-4.8l-1.2,6.3h-2.5L444,89h9L452.6,91.1z"/>
		<path class="st2" d="M463.5,91.1h-6.3l-0.6,3.1h4.5l-0.4,2h-4.5l-0.8,4.2h6.2l-0.4,2.1h-8.7l2.5-13.6h8.8L463.5,91.1z"/>
		<path class="st2" d="M472.3,91.7c-0.7-0.5-1.5-0.8-2.2-0.8c-1.5,0-2.2,0.6-2.2,1.7c0,0.5,0.4,1,1.2,1.7l1.4,1.2
			c0.4,0.4,0.7,0.6,0.9,0.8c0.2,0.2,0.3,0.4,0.5,0.7c0.2,0.3,0.3,0.6,0.4,0.9c0.1,0.3,0.1,0.6,0.1,0.9c0,1.2-0.5,2.2-1.4,2.9
			c-0.9,0.7-2.1,1.1-3.6,1.1c-1.2,0-2.4-0.3-3.5-0.8l0.8-2.4c0.8,0.6,1.8,0.9,2.9,0.9c0.7,0,1.2-0.1,1.7-0.4
			c0.4-0.3,0.7-0.7,0.7-1.2c0-0.5-0.4-1.1-1.2-1.7l-1.5-1.2c-0.4-0.4-0.7-0.6-0.9-0.8s-0.3-0.4-0.5-0.7c-0.2-0.3-0.3-0.6-0.4-0.9
			s-0.1-0.6-0.1-0.9c0-1.3,0.4-2.2,1.2-3c0.8-0.7,1.9-1.1,3.3-1.1c0.4,0,1,0.1,1.7,0.2c0.7,0.1,1.2,0.2,1.5,0.3L472.3,91.7z"/>
		<path class="st2" d="M481.9,91.7c-0.7-0.5-1.5-0.8-2.2-0.8c-1.5,0-2.2,0.6-2.2,1.7c0,0.5,0.4,1,1.2,1.7l1.4,1.2
			c0.4,0.4,0.7,0.6,0.9,0.8c0.2,0.2,0.3,0.4,0.5,0.7c0.2,0.3,0.3,0.6,0.4,0.9c0.1,0.3,0.1,0.6,0.1,0.9c0,1.2-0.5,2.2-1.4,2.9
			c-0.9,0.7-2.1,1.1-3.6,1.1c-1.2,0-2.4-0.3-3.5-0.8l0.8-2.4c0.8,0.6,1.8,0.9,2.9,0.9c0.7,0,1.2-0.1,1.7-0.4
			c0.4-0.3,0.7-0.7,0.7-1.2c0-0.5-0.4-1.1-1.2-1.7l-1.5-1.2c-0.4-0.4-0.7-0.6-0.9-0.8s-0.3-0.4-0.5-0.7c-0.2-0.3-0.3-0.6-0.4-0.9
			s-0.1-0.6-0.1-0.9c0-1.3,0.4-2.2,1.2-3c0.8-0.7,1.9-1.1,3.3-1.1c0.4,0,1,0.1,1.7,0.2c0.7,0.1,1.2,0.2,1.5,0.3L481.9,91.7z"/>
		<path class="st2" d="M485.7,102.7h-2.4l2.5-13.6h2.4L485.7,102.7z"/>
		<path class="st2" d="M488.9,97.6c0-2.4,0.7-4.5,2-6.2c1.3-1.7,3-2.6,5.2-2.6c1.6,0,2.9,0.4,3.8,1.3c0.9,0.9,1.3,2.1,1.3,3.8
			c0,2.7-0.7,4.9-2,6.5c-1.4,1.7-3.2,2.5-5.6,2.5c-1.4,0-2.6-0.5-3.4-1.5C489.3,100.5,488.9,99.2,488.9,97.6z M491.4,97.3
			c0,1,0.2,1.9,0.6,2.5c0.4,0.6,1,0.9,1.8,0.9c1.5,0,2.6-0.7,3.5-2c0.9-1.3,1.3-2.9,1.3-4.8c0-2.1-0.9-3.1-2.8-3.1
			c-1.3,0-2.4,0.7-3.2,2C491.8,94.3,491.4,95.8,491.4,97.3z"/>
		<path class="st2" d="M511.7,102.8h-0.9l-5-8.8l-1.5,8.6h-2.4l2.5-13.6h1.1l4.9,8.5l1.5-8.5h2.4L511.7,102.8z"/>
		<path class="st2" d="M522.5,102.7l-0.4-2.8h-4.9l-1.6,2.8h-2.5l8.3-13.8h0.9l2.8,13.8H522.5z M521,93l-2.8,5.1h3.6L521,93z"/>
		<path class="st2" d="M534.7,102.7h-8.6l2.5-13.6h2.4l-2.1,11.5h6.2L534.7,102.7z"/>
	</g>
</g>
<g>
	<circle class="st2" cx="230.5" cy="73.3" r="2.8"/>
	<circle class="st2" cx="230.5" cy="73.3" r="4.2"/>
</g>
<g>
	<circle class="st2" cx="330.3" cy="73.3" r="2.8"/>
	<circle class="st2" cx="330.3" cy="73.3" r="4.2"/>
</g>
<g>
	<circle class="st2" cx="438.3" cy="73.3" r="2.8"/>
	<circle class="st2" cx="438.3" cy="73.3" r="4.2"/>
</g>
<g>
	<circle class="st2" cx="156.1" cy="96.7" r="2.8"/>
	<circle class="st2" cx="156.1" cy="96.7" r="4.2"/>
</g>
<g>
	<circle class="st2" cx="275.2" cy="96.5" r="2.8"/>
	<circle class="st2" cx="275.2" cy="96.5" r="4.2"/>
</g>
<g>
	<circle class="st2" cx="394.5" cy="96.5" r="2.8"/>
	<circle class="st2" cx="394.5" cy="96.5" r="4.2"/>
</g>
</svg>
