<svg id="Layer_1" data-name="Layer 1" xmlns="http://www.w3.org/2000/svg" viewBox="0 0 631.8 93.6"><defs><style>.cls-1{isolation:isolate;}.cls-2{fill:#99d4db;}.cls-3{fill:#7abf86;}</style></defs><g class="cls-1"><path class="cls-2" d="M236.3,43.3l-1-6.7H223.6l-3.9,6.7h-6.1L233.5,10h2.1l6.7,33.3ZM232.8,20,226,32.3h8.6Z" transform="translate(0 -9.4)"/><path class="cls-2" d="M255.5,43.8a6,6,0,0,1-5.2-2.3l-1.8,1.8h-4.1a53.08,53.08,0,0,0,2.9-9.9l4.3-24h5.5l-1.9,10.7a9.22,9.22,0,0,1,5.1-1.3,8.86,8.86,0,0,1,7.1,3,11.21,11.21,0,0,1,2.5,7.4,13.89,13.89,0,0,1-4.2,10.2A13.34,13.34,0,0,1,255.5,43.8Zm2.6-20.2a4.91,4.91,0,0,0-3.9,1.9L252,37.4c.6,1.2,1.7,1.7,3.4,1.7a7.8,7.8,0,0,0,6.3-2.8,10,10,0,0,0,2.2-6.7C263.8,25.6,261.9,23.6,258.1,23.6Z" transform="translate(0 -9.4)"/><path class="cls-2" d="M272.7,34.3a15.87,15.87,0,0,1,4-11,12.73,12.73,0,0,1,10-4.5c3.1,0,5.5.8,7.1,2.4s2.5,3.9,2.5,6.8a16.35,16.35,0,0,1-3.9,11.1,12.79,12.79,0,0,1-10.1,4.5,10,10,0,0,1-7.1-2.4C273.6,39.7,272.7,37.4,272.7,34.3Zm5.8-.2c0,3.4,1.5,5.1,4.4,5.1a6.25,6.25,0,0,0,5.5-3.2,13.83,13.83,0,0,0,2-7.7c0-3.2-1.5-4.8-4.4-4.8a6.37,6.37,0,0,0-5.5,3.2A13.88,13.88,0,0,0,278.5,34.1Z" transform="translate(0 -9.4)"/><path class="cls-2" d="M318,43.3h-5.6l.3-1.7a12.8,12.8,0,0,1-7.5,2.2,6.19,6.19,0,0,1-4.8-1.8,6.57,6.57,0,0,1-1.8-4.9,21.51,21.51,0,0,1,.2-2.3l2.9-15.5h5.7l-2.8,15.2a11.55,11.55,0,0,0-.2,1.6c0,1.9,1.1,2.9,3.3,2.9a6.44,6.44,0,0,0,4.5-1.7,7.62,7.62,0,0,0,2.3-4.2L317,19.2h5.6Z" transform="translate(0 -9.4)"/><path class="cls-2" d="M341.6,23.8H335l-2.4,10.6a10.4,10.4,0,0,0-.3,2.1c0,1.6.9,2.5,2.8,2.5a11.68,11.68,0,0,0,4-1.2v5a19.73,19.73,0,0,1-6.6.8,5.83,5.83,0,0,1-6.1-6.1,11,11,0,0,1,.2-1.8l2.7-12h-2.8l1-4.5h2.8l.9-4.9,6.4-2.3-1.7,7.2h6.6Z" transform="translate(0 -9.4)"/><path class="cls-2" d="M384.5,43.3l-.4-17.8-10,18.2h-2l-3.2-18.4-6.9,18h-5.6l12.2-32.8h3.3l3.3,20.8L386,10.5h3.4l.9,32.8Z" transform="translate(0 -9.4)"/><path class="cls-2" d="M400.4,32.9v1a5,5,0,0,0,1.5,3.9,5.94,5.94,0,0,0,4.1,1.3,8.8,8.8,0,0,0,3.2-.8,11.09,11.09,0,0,0,2.9-1.7l-.6,5.9a16,16,0,0,1-6.9,1.3,9.42,9.42,0,0,1-7.2-2.8,10.68,10.68,0,0,1-2.8-7.7,14.18,14.18,0,0,1,4-10.3A13.85,13.85,0,0,1,409,18.9a10.24,10.24,0,0,1,6.1,1.6,5.47,5.47,0,0,1,2.4,4.6,7.44,7.44,0,0,1-3.5,6.4,15.52,15.52,0,0,1-8.6,2.3A17,17,0,0,1,400.4,32.9Zm1.1-4.2a10.8,10.8,0,0,0,3.2.4,12.93,12.93,0,0,0,5.1-.9,2.91,2.91,0,0,0,2.1-2.7c0-1.3-1.4-1.9-4.3-1.9a5.17,5.17,0,0,0-3.4,1.5A10,10,0,0,0,401.5,28.7Z" transform="translate(0 -9.4)"/></g><rect class="cls-2" y="24" width="198.4" height="3.4"/><rect class="cls-2" x="433.4" y="24" width="198.4" height="3.4"/><path class="cls-3" d="M141.6,68.8a4.07,4.07,0,0,0-2.4-.8,4.19,4.19,0,0,0-3.5,2,7.67,7.67,0,0,0-1.4,4.4,3.94,3.94,0,0,0,.8,2.5,2.66,2.66,0,0,0,2.2.9,4.87,4.87,0,0,0,3.4-1.2v2.1a5.59,5.59,0,0,1-3.8,1.2,4.61,4.61,0,0,1-3.6-1.5,5.38,5.38,0,0,1-1.4-3.8,9.58,9.58,0,0,1,2.1-6.3,6.78,6.78,0,0,1,5.5-2.6,8.36,8.36,0,0,1,2.9.5Z" transform="translate(0 -9.4)"/><path class="cls-3" d="M150.3,73.7l3,6h-2.7L148,74.1a10.36,10.36,0,0,1-1.6-.1l-1.1,5.7h-2.5l2.5-13.6c1.8-.1,3-.1,3.6-.1a6.05,6.05,0,0,1,3.5.9,2.76,2.76,0,0,1,1.3,2.5,4.47,4.47,0,0,1-.9,2.8A4.07,4.07,0,0,1,150.3,73.7Zm-2.8-5.5-.7,3.8c.4,0,.7.1,1,.1,2.3,0,3.5-.7,3.5-2.2a1.27,1.27,0,0,0-.7-1.3,4.32,4.32,0,0,0-2.2-.4C148.3,68.1,148,68.2,147.5,68.2Z" transform="translate(0 -9.4)"/><path class="cls-3" d="M165.6,68.3h-6.3l-.6,3.1h4.5l-.4,2h-4.5l-.8,4.2h6.2l-.4,2.1h-8.7l2.5-13.6h8.8Z" transform="translate(0 -9.4)"/><path class="cls-3" d="M174.2,79.8l-.4-2.8h-4.9l-1.6,2.8h-2.5L173,66h.9l2.8,13.8Zm-1.5-9.7-2.8,5.1h3.6Z" transform="translate(0 -9.4)"/><path class="cls-3" d="M188.6,68.3h-4.3l-2.1,11.5h-2.4l2.1-11.5h-4.3l.4-2.1h11Z" transform="translate(0 -9.4)"/><path class="cls-3" d="M191.7,79.8h-2.4l2.5-13.6h2.4Z" transform="translate(0 -9.4)"/><path class="cls-3" d="M200.2,80h-1.3l-2.7-13.8h2.6l1.6,9,4.8-9h2.7Z" transform="translate(0 -9.4)"/><path class="cls-3" d="M218.3,68.3H212l-.6,3.1h4.5l-.4,2H211l-.8,4.2h6.2l-.4,2.1h-8.7l2.5-13.6h8.8Z" transform="translate(0 -9.4)"/><path class="cls-3" d="M252.1,68.8a4.07,4.07,0,0,0-2.4-.8,4.19,4.19,0,0,0-3.5,2,7.67,7.67,0,0,0-1.4,4.4,3.94,3.94,0,0,0,.8,2.5,2.66,2.66,0,0,0,2.2.9,4.87,4.87,0,0,0,3.4-1.2v2.1a5.59,5.59,0,0,1-3.8,1.2,4.61,4.61,0,0,1-3.6-1.5,5.38,5.38,0,0,1-1.4-3.8,9.58,9.58,0,0,1,2.1-6.3,6.78,6.78,0,0,1,5.5-2.6,8.36,8.36,0,0,1,2.9.5Z" transform="translate(0 -9.4)"/><path class="cls-3" d="M264.3,75.6a5.17,5.17,0,0,1-2,3.3,6.05,6.05,0,0,1-3.9,1.2,5,5,0,0,1-3.1-.9,3.09,3.09,0,0,1-1.2-2.6,4.48,4.48,0,0,1,.1-1.1l1.7-9.3h2.5l-1.7,9.3V76a1.68,1.68,0,0,0,.6,1.4,2.46,2.46,0,0,0,1.5.5,3.14,3.14,0,0,0,2.1-.7,3.33,3.33,0,0,0,1.1-1.9l1.7-9.2h2.5Z" transform="translate(0 -9.4)"/><path class="cls-3" d="M273.4,73.7l3,6h-2.7l-2.6-5.6a10.36,10.36,0,0,1-1.6-.1l-1.1,5.7H266l2.5-13.6c1.8-.1,3-.1,3.6-.1a6.05,6.05,0,0,1,3.5.9,2.76,2.76,0,0,1,1.3,2.5,4.47,4.47,0,0,1-.9,2.8A4,4,0,0,1,273.4,73.7Zm-2.8-5.5-.7,3.8c.4,0,.7.1,1,.1,2.3,0,3.5-.7,3.5-2.2a1.27,1.27,0,0,0-.7-1.3,4.32,4.32,0,0,0-2.2-.4C271.4,68.1,271.1,68.2,270.6,68.2Z" transform="translate(0 -9.4)"/><path class="cls-3" d="M280.5,79.8h-2.4l2.5-13.6H283Z" transform="translate(0 -9.4)"/><path class="cls-3" d="M283.7,74.7a10,10,0,0,1,2-6.2,6.22,6.22,0,0,1,5.2-2.6,5.17,5.17,0,0,1,3.8,1.3A5,5,0,0,1,296,71a10.09,10.09,0,0,1-2,6.5,6.76,6.76,0,0,1-5.6,2.5,4.19,4.19,0,0,1-3.4-1.5A5.17,5.17,0,0,1,283.7,74.7Zm2.5-.2a4.63,4.63,0,0,0,.6,2.5,2,2,0,0,0,1.8.9,4.06,4.06,0,0,0,3.5-2,8.21,8.21,0,0,0,1.3-4.8c0-2.1-.9-3.1-2.8-3.1a3.72,3.72,0,0,0-3.2,2A8.92,8.92,0,0,0,286.2,74.5Z" transform="translate(0 -9.4)"/><path class="cls-3" d="M307.5,75.6a5.17,5.17,0,0,1-2,3.3,6.05,6.05,0,0,1-3.9,1.2,5,5,0,0,1-3.1-.9,3.09,3.09,0,0,1-1.2-2.6,4.48,4.48,0,0,1,.1-1.1l1.7-9.3h2.5l-1.7,9.3V76a1.68,1.68,0,0,0,.6,1.4,2.46,2.46,0,0,0,1.5.5,3.14,3.14,0,0,0,2.1-.7,3.33,3.33,0,0,0,1.1-1.9l1.7-9.2h2.5Z" transform="translate(0 -9.4)"/><path class="cls-3" d="M317.5,68.8a4,4,0,0,0-2.2-.8c-1.5,0-2.2.6-2.2,1.7,0,.5.4,1,1.2,1.7l1.4,1.2c.4.4.7.6.9.8a4.23,4.23,0,0,1,.5.7,3.55,3.55,0,0,1,.4.9,2.77,2.77,0,0,1,.1.9,3.56,3.56,0,0,1-1.4,2.9,5.72,5.72,0,0,1-3.6,1.1,8.53,8.53,0,0,1-3.5-.8l.8-2.4a4.76,4.76,0,0,0,2.9.9,3.06,3.06,0,0,0,1.7-.4,1.52,1.52,0,0,0,.7-1.2c0-.5-.4-1.1-1.2-1.7l-1.5-1.2c-.4-.4-.7-.6-.9-.8a4.23,4.23,0,0,1-.5-.7,3.55,3.55,0,0,1-.4-.9,2.77,2.77,0,0,1-.1-.9,3.92,3.92,0,0,1,1.2-3,4.86,4.86,0,0,1,3.3-1.1,14.93,14.93,0,0,1,1.7.2,9.59,9.59,0,0,1,1.5.3Z" transform="translate(0 -9.4)"/><path class="cls-3" d="M345,79.8h-3.3l2.5-13.6a11.42,11.42,0,0,1,2.5-.2,7.42,7.42,0,0,1,4.8,1.4,5.06,5.06,0,0,1,1.7,4.1,8.14,8.14,0,0,1-2.3,6A7.91,7.91,0,0,1,345,79.8Zm1.2-11.7-1.7,9.5h.7a4.9,4.9,0,0,0,4-1.8,6.79,6.79,0,0,0,1.5-4.5,3,3,0,0,0-1-2.4,3.74,3.74,0,0,0-2.6-.9C346.8,68,346.5,68.1,346.2,68.1Z" transform="translate(0 -9.4)"/><path class="cls-3" d="M361.2,73.7l3,6h-2.7l-2.6-5.6a10.36,10.36,0,0,1-1.6-.1l-1.1,5.7h-2.5l2.5-13.6c1.8-.1,3-.1,3.6-.1a6.05,6.05,0,0,1,3.5.9,2.76,2.76,0,0,1,1.3,2.5,4.47,4.47,0,0,1-.9,2.8A4.07,4.07,0,0,1,361.2,73.7Zm-2.8-5.5-.7,3.8c.4,0,.7.1,1,.1,2.3,0,3.5-.7,3.5-2.2a1.27,1.27,0,0,0-.7-1.3,4.32,4.32,0,0,0-2.2-.4C359.2,68.1,358.9,68.2,358.4,68.2Z" transform="translate(0 -9.4)"/><path class="cls-3" d="M376.5,68.3h-6.3l-.6,3.1h4.5l-.4,2h-4.5l-.8,4.2h6.2l-.4,2.1h-8.7L368,66.1h8.8Z" transform="translate(0 -9.4)"/><path class="cls-3" d="M385.1,79.8l-.4-2.8h-4.9l-1.6,2.8h-2.5L384,66h.9l2.8,13.8Zm-1.5-9.7-2.8,5.1h3.6Z" transform="translate(0 -9.4)"/><path class="cls-3" d="M399.8,79.8l-.2-7.4L395.5,80h-.8l-1.3-7.6-2.9,7.5h-2.3l5.1-13.6h1.4l1.4,8.6,4.5-8.6H402l.4,13.6h-2.6Z" transform="translate(0 -9.4)"/><path class="cls-3" d="M414.5,68.3h-6.3l-.6,3.1h4.5l-.4,2h-4.5l-.8,4.2h6.2l-.4,2.1h-8.7L406,66.1h8.8Z" transform="translate(0 -9.4)"/><path class="cls-3" d="M422.4,73.7l3,6h-2.7l-2.6-5.6a10.36,10.36,0,0,1-1.6-.1l-1.1,5.7H415l2.5-13.6c1.8-.1,3-.1,3.6-.1a6.05,6.05,0,0,1,3.5.9,2.76,2.76,0,0,1,1.3,2.5,4.47,4.47,0,0,1-.9,2.8A4.31,4.31,0,0,1,422.4,73.7Zm-2.8-5.5-.7,3.8c.4,0,.7.1,1,.1,2.3,0,3.5-.7,3.5-2.2a1.27,1.27,0,0,0-.7-1.3,4.32,4.32,0,0,0-2.2-.4C420.4,68.1,420.1,68.2,419.6,68.2Z" transform="translate(0 -9.4)"/><path class="cls-3" d="M460.9,68.3h-6.6l-.6,3.1h4.8l-.4,2h-4.8l-1.2,6.3h-2.5l2.5-13.6h9Z" transform="translate(0 -9.4)"/><path class="cls-3" d="M471.9,75.6a5.17,5.17,0,0,1-2,3.3,6.05,6.05,0,0,1-3.9,1.2,5,5,0,0,1-3.1-.9,3.09,3.09,0,0,1-1.2-2.6,4.48,4.48,0,0,1,.1-1.1l1.7-9.3H466l-1.7,9.3V76a1.68,1.68,0,0,0,.6,1.4,2.46,2.46,0,0,0,1.5.5,3.14,3.14,0,0,0,2.1-.7,3.33,3.33,0,0,0,1.1-1.9l1.7-9.2h2.5Z" transform="translate(0 -9.4)"/><path class="cls-3" d="M483.5,80h-.9l-5-8.8-1.5,8.6h-2.4l2.5-13.6h1.1l4.9,8.5,1.5-8.5h2.4Z" transform="translate(0 -9.4)"/><path class="cls-3" d="M92.3,101.4a8.54,8.54,0,0,1-5.1,1.5,5,5,0,0,1-3.8-1.5,5.2,5.2,0,0,1-1.5-3.8,8.9,8.9,0,0,1,2.2-6.4,7.91,7.91,0,0,1,6.1-2.4,4.59,4.59,0,0,1,3.1.9l-.7,2a5.06,5.06,0,0,0-6.6,1,6.79,6.79,0,0,0-1.5,4.5,3.57,3.57,0,0,0,.9,2.6,4,4,0,0,0,4.8.2l.5-2.7H88.8l.4-2h4.3Z" transform="translate(0 -9.4)"/><path class="cls-3" d="M102.5,102.7l-.4-2.8H97.2l-1.6,2.8H93.1l8.3-13.8h.9l2.8,13.8ZM101.1,93l-2.8,5.1h3.6Z" transform="translate(0 -9.4)"/><path class="cls-3" d="M117.2,102.7l-.2-7.4-4.1,7.6h-.8l-1.3-7.6-2.9,7.5h-2.3l5.1-13.6h1.4l1.4,8.6,4.5-8.6h1.4l.4,13.6h-2.6Z" transform="translate(0 -9.4)"/><path class="cls-3" d="M132,91.1h-6.3l-.6,3.1h4.5l-.4,2h-4.5l-.8,4.2h6.2l-.4,2.1H121l2.5-13.6h8.8Z" transform="translate(0 -9.4)"/><path class="cls-3" d="M139.9,96.6l3,6h-2.7L137.6,97a10.36,10.36,0,0,1-1.6-.1l-1.1,5.7h-2.5L135,89c1.8-.1,3-.1,3.6-.1a6.05,6.05,0,0,1,3.5.9,2.76,2.76,0,0,1,1.3,2.5,4.47,4.47,0,0,1-.9,2.8A4.31,4.31,0,0,1,139.9,96.6Zm-2.8-5.5-.7,3.8c.4,0,.7.1,1,.1,2.3,0,3.5-.7,3.5-2.2a1.27,1.27,0,0,0-.7-1.3,4.32,4.32,0,0,0-2.2-.4C137.9,91,137.6,91.1,137.1,91.1Z" transform="translate(0 -9.4)"/><path class="cls-3" d="M178.1,91.1h-6.3l-.6,3.1h4.5l-.4,2h-4.5l-.8,4.2h6.2l-.4,2.1h-8.7l2.5-13.6h8.8Z" transform="translate(0 -9.4)"/><path class="cls-3" d="M188.5,102.8h-.9l-5-8.8-1.5,8.6h-2.4L181.2,89h1.1l4.9,8.5,1.5-8.5h2.4Z" transform="translate(0 -9.4)"/><path class="cls-3" d="M203.7,91.1h-4.3l-2.1,11.5h-2.4L197,91.1h-4.3L193,89h11.1Z" transform="translate(0 -9.4)"/><path class="cls-3" d="M214.6,102.7h-2.4l1.2-6.3H208l-1.2,6.3h-2.5l2.5-13.6h2.5l-1,5.3h5.4l1-5.3h2.5Z" transform="translate(0 -9.4)"/><path class="cls-3" d="M228.1,98.5a5.17,5.17,0,0,1-2,3.3,6.05,6.05,0,0,1-3.9,1.2,5,5,0,0,1-3.1-.9,3.09,3.09,0,0,1-1.2-2.6,4.48,4.48,0,0,1,.1-1.1l1.7-9.3h2.5l-1.7,9.3v.5a1.68,1.68,0,0,0,.6,1.4,2.46,2.46,0,0,0,1.5.5,3.14,3.14,0,0,0,2.1-.7,3.33,3.33,0,0,0,1.1-1.9l1.7-9.2H230Z" transform="translate(0 -9.4)"/><path class="cls-3" d="M237.9,102.7l-.4-2.8h-4.9l-1.6,2.8h-2.5l8.3-13.8h.9l2.8,13.8ZM236.4,93l-2.8,5.1h3.6Z" transform="translate(0 -9.4)"/><path class="cls-3" d="M249.8,91.7a4,4,0,0,0-2.2-.8c-1.5,0-2.2.6-2.2,1.7,0,.5.4,1,1.2,1.7l1.4,1.2c.4.4.7.6.9.8a4.23,4.23,0,0,1,.5.7,3.55,3.55,0,0,1,.4.9,2.77,2.77,0,0,1,.1.9,3.56,3.56,0,0,1-1.4,2.9,5.72,5.72,0,0,1-3.6,1.1,8.53,8.53,0,0,1-3.5-.8l.8-2.4a4.76,4.76,0,0,0,2.9.9,3.06,3.06,0,0,0,1.7-.4,1.52,1.52,0,0,0,.7-1.2c0-.5-.4-1.1-1.2-1.7L244.8,96c-.4-.4-.7-.6-.9-.8a4.23,4.23,0,0,1-.5-.7,3.55,3.55,0,0,1-.4-.9,2.77,2.77,0,0,1-.1-.9,3.92,3.92,0,0,1,1.2-3,4.86,4.86,0,0,1,3.3-1.1,14.93,14.93,0,0,1,1.7.2,9.59,9.59,0,0,1,1.5.3Z" transform="translate(0 -9.4)"/><path class="cls-3" d="M263.5,91.1h-4.3l-2.1,11.5h-2.4l2.1-11.5h-4.3l.4-2.1H264Z" transform="translate(0 -9.4)"/><path class="cls-3" d="M290.5,97.6l-.9,5h-2.5L289.7,89c1.3-.1,2.3-.2,3-.2,3.6,0,5.4,1.4,5.4,4.1a4.38,4.38,0,0,1-1.6,3.6,6.49,6.49,0,0,1-4.3,1.3A4.68,4.68,0,0,1,290.5,97.6Zm1.2-6.5-.8,4.5a4.12,4.12,0,0,0,1.2.1,3.73,3.73,0,0,0,2.5-.7,2.38,2.38,0,0,0,.9-2q0-2.1-2.4-2.1A6.75,6.75,0,0,0,291.7,91.1Z" transform="translate(0 -9.4)"/><path class="cls-3" d="M309.1,98.5a5.17,5.17,0,0,1-2,3.3,6.05,6.05,0,0,1-3.9,1.2,5,5,0,0,1-3.1-.9,3.09,3.09,0,0,1-1.2-2.6,4.48,4.48,0,0,1,.1-1.1l1.7-9.3h2.5l-1.7,9.3v.5a1.68,1.68,0,0,0,.6,1.4,2.46,2.46,0,0,0,1.5.5,3.14,3.14,0,0,0,2.1-.7,3.33,3.33,0,0,0,1.1-1.9l1.7-9.2H311Z" transform="translate(0 -9.4)"/><path class="cls-3" d="M320.7,102.8h-.9l-5-8.8-1.5,8.6h-2.4L313.4,89h1.1l4.9,8.5,1.5-8.5h2.4Z" transform="translate(0 -9.4)"/><path class="cls-3" d="M333.8,91.6a4.07,4.07,0,0,0-2.4-.8,4.19,4.19,0,0,0-3.5,2,7.67,7.67,0,0,0-1.4,4.4,3.94,3.94,0,0,0,.8,2.5,2.66,2.66,0,0,0,2.2.9,4.87,4.87,0,0,0,3.4-1.2v2.1a5.59,5.59,0,0,1-3.8,1.2,4.61,4.61,0,0,1-3.6-1.5,5.38,5.38,0,0,1-1.4-3.8,9.58,9.58,0,0,1,2.1-6.3,6.78,6.78,0,0,1,5.5-2.6,8.36,8.36,0,0,1,2.9.5Z" transform="translate(0 -9.4)"/><path class="cls-3" d="M347.6,91.1h-4.3l-2.1,11.5h-2.4l2.1-11.5h-4.3L337,89h11Z" transform="translate(0 -9.4)"/><path class="cls-3" d="M359,98.5a5.17,5.17,0,0,1-2,3.3,6.05,6.05,0,0,1-3.9,1.2,5,5,0,0,1-3.1-.9,3.09,3.09,0,0,1-1.2-2.6,4.48,4.48,0,0,1,.1-1.1l1.7-9.3h2.5l-1.7,9.3v.5a1.68,1.68,0,0,0,.6,1.4,2.46,2.46,0,0,0,1.5.5,3.14,3.14,0,0,0,2.1-.7,3.33,3.33,0,0,0,1.1-1.9l1.7-9.2h2.5Z" transform="translate(0 -9.4)"/><path class="cls-3" d="M368.8,102.7l-.4-2.8h-4.9l-1.6,2.8h-2.5l8.3-13.8h.9l2.8,13.8ZM367.4,93l-2.8,5.1h3.6Z" transform="translate(0 -9.4)"/><path class="cls-3" d="M381.1,102.7h-8.6L375,89h2.4l-2.1,11.5h6.2Z" transform="translate(0 -9.4)"/><path class="cls-3" d="M408.6,97.6l-.9,5h-2.5L407.8,89c1.3-.1,2.3-.2,3-.2,3.6,0,5.4,1.4,5.4,4.1a4.38,4.38,0,0,1-1.6,3.6,6.49,6.49,0,0,1-4.3,1.3A4.42,4.42,0,0,1,408.6,97.6Zm1.1-6.5-.8,4.5a4.12,4.12,0,0,0,1.2.1,3.73,3.73,0,0,0,2.5-.7,2.38,2.38,0,0,0,.9-2q0-2.1-2.4-2.1A9.32,9.32,0,0,0,409.7,91.1Z" transform="translate(0 -9.4)"/><path class="cls-3" d="M423.7,96.6l3,6H424L421.4,97a10.36,10.36,0,0,1-1.6-.1l-1.1,5.7h-2.5L418.7,89c1.8-.1,3-.1,3.6-.1a6.05,6.05,0,0,1,3.5.9,2.76,2.76,0,0,1,1.3,2.5,4.47,4.47,0,0,1-.9,2.8A4.07,4.07,0,0,1,423.7,96.6Zm-2.8-5.5-.7,3.8c.4,0,.7.1,1,.1,2.3,0,3.5-.7,3.5-2.2a1.27,1.27,0,0,0-.7-1.3,4.32,4.32,0,0,0-2.2-.4C421.7,91,421.4,91.1,420.9,91.1Z" transform="translate(0 -9.4)"/><path class="cls-3" d="M428.6,97.6a10,10,0,0,1,2-6.2,6.22,6.22,0,0,1,5.2-2.6,5.17,5.17,0,0,1,3.8,1.3,5,5,0,0,1,1.3,3.8,10.09,10.09,0,0,1-2,6.5,6.76,6.76,0,0,1-5.6,2.5,4.19,4.19,0,0,1-3.4-1.5A5.62,5.62,0,0,1,428.6,97.6Zm2.5-.3a4.63,4.63,0,0,0,.6,2.5,2,2,0,0,0,1.8.9,4.06,4.06,0,0,0,3.5-2,8.21,8.21,0,0,0,1.3-4.8c0-2.1-.9-3.1-2.8-3.1a3.72,3.72,0,0,0-3.2,2A10.81,10.81,0,0,0,431.1,97.3Z" transform="translate(0 -9.4)"/><path class="cls-3" d="M452.6,91.1H446l-.6,3.1h4.8l-.4,2H445l-1.2,6.3h-2.5L444,89h9Z" transform="translate(0 -9.4)"/><path class="cls-3" d="M463.5,91.1h-6.3l-.6,3.1h4.5l-.4,2h-4.5l-.8,4.2h6.2l-.4,2.1h-8.7L455,88.9h8.8Z" transform="translate(0 -9.4)"/><path class="cls-3" d="M472.3,91.7a4,4,0,0,0-2.2-.8c-1.5,0-2.2.6-2.2,1.7,0,.5.4,1,1.2,1.7l1.4,1.2c.4.4.7.6.9.8a4.23,4.23,0,0,1,.5.7,3.55,3.55,0,0,1,.4.9,2.77,2.77,0,0,1,.1.9,3.56,3.56,0,0,1-1.4,2.9,5.72,5.72,0,0,1-3.6,1.1,8.53,8.53,0,0,1-3.5-.8l.8-2.4a4.76,4.76,0,0,0,2.9.9,3.06,3.06,0,0,0,1.7-.4,1.52,1.52,0,0,0,.7-1.2c0-.5-.4-1.1-1.2-1.7L467.3,96c-.4-.4-.7-.6-.9-.8a4.23,4.23,0,0,1-.5-.7,3.55,3.55,0,0,1-.4-.9,2.77,2.77,0,0,1-.1-.9,3.92,3.92,0,0,1,1.2-3,4.86,4.86,0,0,1,3.3-1.1,14.93,14.93,0,0,1,1.7.2,9.59,9.59,0,0,1,1.5.3Z" transform="translate(0 -9.4)"/><path class="cls-3" d="M481.9,91.7a4,4,0,0,0-2.2-.8c-1.5,0-2.2.6-2.2,1.7,0,.5.4,1,1.2,1.7l1.4,1.2c.4.4.7.6.9.8a4.23,4.23,0,0,1,.5.7,3.55,3.55,0,0,1,.4.9,2.77,2.77,0,0,1,.1.9,3.56,3.56,0,0,1-1.4,2.9,5.72,5.72,0,0,1-3.6,1.1,8.53,8.53,0,0,1-3.5-.8l.8-2.4a4.76,4.76,0,0,0,2.9.9,3.06,3.06,0,0,0,1.7-.4,1.52,1.52,0,0,0,.7-1.2c0-.5-.4-1.1-1.2-1.7L476.9,96c-.4-.4-.7-.6-.9-.8a4.23,4.23,0,0,1-.5-.7,3.55,3.55,0,0,1-.4-.9,2.77,2.77,0,0,1-.1-.9,3.92,3.92,0,0,1,1.2-3,4.86,4.86,0,0,1,3.3-1.1,14.93,14.93,0,0,1,1.7.2,9.59,9.59,0,0,1,1.5.3Z" transform="translate(0 -9.4)"/><path class="cls-3" d="M485.7,102.7h-2.4l2.5-13.6h2.4Z" transform="translate(0 -9.4)"/><path class="cls-3" d="M488.9,97.6a10,10,0,0,1,2-6.2,6.22,6.22,0,0,1,5.2-2.6,5.17,5.17,0,0,1,3.8,1.3,5,5,0,0,1,1.3,3.8,10.09,10.09,0,0,1-2,6.5,6.76,6.76,0,0,1-5.6,2.5,4.19,4.19,0,0,1-3.4-1.5A5.17,5.17,0,0,1,488.9,97.6Zm2.5-.3a4.63,4.63,0,0,0,.6,2.5,2,2,0,0,0,1.8.9,4.06,4.06,0,0,0,3.5-2,8.21,8.21,0,0,0,1.3-4.8c0-2.1-.9-3.1-2.8-3.1a3.72,3.72,0,0,0-3.2,2A9.49,9.49,0,0,0,491.4,97.3Z" transform="translate(0 -9.4)"/><path class="cls-3" d="M511.7,102.8h-.9l-5-8.8-1.5,8.6h-2.4L504.4,89h1.1l4.9,8.5,1.5-8.5h2.4Z" transform="translate(0 -9.4)"/><path class="cls-3" d="M522.5,102.7l-.4-2.8h-4.9l-1.6,2.8h-2.5l8.3-13.8h.9l2.8,13.8ZM521,93l-2.8,5.1h3.6Z" transform="translate(0 -9.4)"/><path class="cls-3" d="M534.7,102.7h-8.6l2.5-13.6H531l-2.1,11.5h6.2Z" transform="translate(0 -9.4)"/><circle class="cls-3" cx="230.5" cy="63.9" r="2.8"/><circle class="cls-3" cx="230.5" cy="63.9" r="4.2"/><circle class="cls-3" cx="330.3" cy="63.9" r="2.8"/><circle class="cls-3" cx="330.3" cy="63.9" r="4.2"/><circle class="cls-3" cx="438.3" cy="63.9" r="2.8"/><circle class="cls-3" cx="438.3" cy="63.9" r="4.2"/><circle class="cls-3" cx="156.1" cy="87.3" r="2.8"/><circle class="cls-3" cx="156.1" cy="87.3" r="4.2"/><circle class="cls-3" cx="275.2" cy="87.1" r="2.8"/><circle class="cls-3" cx="275.2" cy="87.1" r="4.2"/><circle class="cls-3" cx="394.5" cy="87.1" r="2.8"/><circle class="cls-3" cx="394.5" cy="87.1" r="4.2"/></svg>