<svg id="Layer_1" data-name="Layer 1" xmlns="http://www.w3.org/2000/svg" xmlns:xlink="http://www.w3.org/1999/xlink" viewBox="0 0 1008 613.72"><defs><style>.cls-1,.cls-11,.cls-13,.cls-15,.cls-17,.cls-19,.cls-21,.cls-5{fill:none;}.cls-2{clip-path:url(#clip-path);}.cls-3{fill:#fff;}.cls-4{clip-path:url(#clip-path-2);}.cls-13,.cls-5{stroke:#000;}.cls-11,.cls-13,.cls-15,.cls-17,.cls-19,.cls-21,.cls-5{stroke-width:0.72px;}.cls-6{clip-path:url(#clip-path-3);}.cls-7{font-size:17.27px;font-family:Arial-BoldMT, Arial;font-weight:700;}.cls-8{font-size:8.63px;}.cls-12,.cls-22,.cls-8,.cls-9{font-family:ArialMT, Arial;}.cls-9{font-size:16.55px;}.cls-10{fill:#ffe6cc;}.cls-11{stroke:#d79b00;}.cls-12{font-size:20.87px;}.cls-13{stroke-miterlimit:10;}.cls-14{fill:#f8cecc;}.cls-15{stroke:#b85450;}.cls-16{fill:#dae8fc;}.cls-17{stroke:#6c8ebf;}.cls-18{fill:#e1d5e7;}.cls-19{stroke:#9673a6;}.cls-20{fill:#d5e8d4;}.cls-21{stroke:#82b366;}.cls-22{font-size:11.51px;}</style><clipPath id="clip-path"><rect class="cls-1" width="1008" height="613.72"/></clipPath><clipPath id="clip-path-2"><rect class="cls-1" width="1008" height="612.28"/></clipPath><clipPath id="clip-path-3"><rect class="cls-1" x="33.1" y="46.05" width="183.47" height="287.07"/></clipPath></defs><g class="cls-2"><rect class="cls-3" width="1008" height="613.72"/><rect class="cls-3" width="1008" height="612.28"/></g><g class="cls-4"><rect class="cls-3" x="17.62" y="29.14" width="214.77" height="533.86"/><rect class="cls-5" x="17.62" y="29.14" width="214.77" height="533.86"/></g><g class="cls-6"><text class="cls-7" transform="translate(33.1 73.39)">Features</text><text class="cls-8" transform="translate(33.1 97.85)">1. User click on buttons on screen to compute</text><text class="cls-8" transform="translate(33.1 107.92)">numbers as per their requirements. Numbers</text><text class="cls-8" transform="translate(33.1 118.72)">cab be divided, multiplied, added or substracted</text><text class="cls-8" transform="translate(33.1 128.79)">and compute with the equals button in a final</text><text class="cls-8" transform="translate(33.1 139.58)">number</text><text class="cls-8" transform="translate(62.37 139.58)"> </text><text class="cls-8" transform="translate(33.1 158.29)">2. User can use the cancel button to remove</text><text class="cls-8" transform="translate(33.1 168.36)">any calculations to start from the beginning</text><text class="cls-8" transform="translate(33.1 179.15)">again</text><text class="cls-8" transform="translate(33.1 216.57)">Environment:</text><text class="cls-8" transform="translate(33.1 235.99)">1. Numbers: 0 - 9</text><text class="cls-8" transform="translate(33.1 254.7)">2. Operations</text><text class="cls-8" transform="translate(84.93 254.7)"> </text><text class="cls-8" transform="translate(33.1 274.12)">3. Equal sign</text><text class="cls-8" transform="translate(33.1 292.83)">4. cancel / remove</text><text class="cls-8" transform="translate(33.1 311.54)">5. display screen to show user what is being</text><text class="cls-8" transform="translate(33.1 322.33)">process and to display final answer</text></g><g class="cls-4"><path class="cls-3" d="M320.78,93.89H446a10.39,10.39,0,0,1,2.15.22,11.47,11.47,0,0,1,2.07.62,11.28,11.28,0,0,1,1.91,1,11.63,11.63,0,0,1,1.68,1.38,11,11,0,0,1,1.37,1.67,11.28,11.28,0,0,1,1,1.91,10.75,10.75,0,0,1,.63,2.07,11.14,11.14,0,0,1,.21,2.16v51.54a11.22,11.22,0,0,1-.21,2.16,10.75,10.75,0,0,1-.63,2.07,11.68,11.68,0,0,1-1,1.91,11,11,0,0,1-1.37,1.67,11.56,11.56,0,0,1-1.68,1.37,10,10,0,0,1-1.91,1,10.75,10.75,0,0,1-2.07.63,11.12,11.12,0,0,1-2.15.22H320.78a11.12,11.12,0,0,1-2.15-.22,10.75,10.75,0,0,1-2.07-.63,10,10,0,0,1-1.91-1,10.86,10.86,0,0,1-3-3,11.68,11.68,0,0,1-1-1.91,10.75,10.75,0,0,1-.63-2.07,11.22,11.22,0,0,1-.21-2.16V104.94a11.14,11.14,0,0,1,.21-2.16,10.75,10.75,0,0,1,.63-2.07,11.28,11.28,0,0,1,1-1.91A11,11,0,0,1,313,97.13a11.11,11.11,0,0,1,1.68-1.38,11.28,11.28,0,0,1,1.91-1,11.47,11.47,0,0,1,2.07-.62A10.39,10.39,0,0,1,320.78,93.89Z"/><path class="cls-5" d="M320.78,93.89H446a10.39,10.39,0,0,1,2.15.22,11.47,11.47,0,0,1,2.07.62,11.28,11.28,0,0,1,1.91,1,11.63,11.63,0,0,1,1.68,1.38,11,11,0,0,1,1.37,1.67,11.28,11.28,0,0,1,1,1.91,10.75,10.75,0,0,1,.63,2.07,11.14,11.14,0,0,1,.21,2.16v51.54a11.22,11.22,0,0,1-.21,2.16,10.75,10.75,0,0,1-.63,2.07,11.68,11.68,0,0,1-1,1.91,11,11,0,0,1-1.37,1.67,11.56,11.56,0,0,1-1.68,1.37,10,10,0,0,1-1.91,1,10.75,10.75,0,0,1-2.07.63,11.12,11.12,0,0,1-2.15.22H320.78a11.12,11.12,0,0,1-2.15-.22,10.75,10.75,0,0,1-2.07-.63,10,10,0,0,1-1.91-1,10.86,10.86,0,0,1-3-3,11.68,11.68,0,0,1-1-1.91,10.75,10.75,0,0,1-.63-2.07,11.22,11.22,0,0,1-.21-2.16V104.94a11.14,11.14,0,0,1,.21-2.16,10.75,10.75,0,0,1,.63-2.07,11.28,11.28,0,0,1,1-1.91A11,11,0,0,1,313,97.13a11.11,11.11,0,0,1,1.68-1.38,11.28,11.28,0,0,1,1.91-1,11.47,11.47,0,0,1,2.07-.62A10.39,10.39,0,0,1,320.78,93.89Z"/><text class="cls-9" transform="translate(365.3 135.98)">User</text><text class="cls-8" transform="translate(373.65 269.81)">User</text><path class="cls-10" d="M320.78,230.6H446a11.11,11.11,0,0,1,2.15.21,10.75,10.75,0,0,1,2.07.63,10,10,0,0,1,1.91,1,11.56,11.56,0,0,1,1.68,1.37,11,11,0,0,1,1.37,1.67,11.68,11.68,0,0,1,1,1.91,10.75,10.75,0,0,1,.63,2.07,11.22,11.22,0,0,1,.21,2.16v51.54a11.14,11.14,0,0,1-.21,2.16,10.75,10.75,0,0,1-.63,2.07,11.28,11.28,0,0,1-1,1.91,11,11,0,0,1-1.37,1.67,11.63,11.63,0,0,1-1.68,1.38,11.28,11.28,0,0,1-1.91,1,12.37,12.37,0,0,1-2.07.63,11.11,11.11,0,0,1-2.15.21H320.78a11.11,11.11,0,0,1-2.15-.21,12.37,12.37,0,0,1-2.07-.63,11.28,11.28,0,0,1-1.91-1A11.11,11.11,0,0,1,313,301a11,11,0,0,1-1.37-1.67,11.28,11.28,0,0,1-1-1.91,10.75,10.75,0,0,1-.63-2.07,11.14,11.14,0,0,1-.21-2.16V241.64a11.22,11.22,0,0,1,.21-2.16,10.75,10.75,0,0,1,.63-2.07,11.68,11.68,0,0,1,1-1.91,10.86,10.86,0,0,1,3-3,10,10,0,0,1,1.91-1,10.75,10.75,0,0,1,2.07-.63A11.11,11.11,0,0,1,320.78,230.6Z"/><path class="cls-11" d="M320.78,230.6H446a11.11,11.11,0,0,1,2.15.21,10.75,10.75,0,0,1,2.07.63,10,10,0,0,1,1.91,1,11.56,11.56,0,0,1,1.68,1.37,11,11,0,0,1,1.37,1.67,11.68,11.68,0,0,1,1,1.91,10.75,10.75,0,0,1,.63,2.07,11.22,11.22,0,0,1,.21,2.16v51.54a11.14,11.14,0,0,1-.21,2.16,10.75,10.75,0,0,1-.63,2.07,11.28,11.28,0,0,1-1,1.91,11,11,0,0,1-1.37,1.67,11.63,11.63,0,0,1-1.68,1.38,11.28,11.28,0,0,1-1.91,1,12.37,12.37,0,0,1-2.07.63,11.11,11.11,0,0,1-2.15.21H320.78a11.11,11.11,0,0,1-2.15-.21,12.37,12.37,0,0,1-2.07-.63,11.28,11.28,0,0,1-1.91-1A11.11,11.11,0,0,1,313,301a11,11,0,0,1-1.37-1.67,11.28,11.28,0,0,1-1-1.91,10.75,10.75,0,0,1-.63-2.07,11.14,11.14,0,0,1-.21-2.16V241.64a11.22,11.22,0,0,1,.21-2.16,10.75,10.75,0,0,1,.63-2.07,11.68,11.68,0,0,1,1-1.91,10.86,10.86,0,0,1,3-3,10,10,0,0,1,1.91-1,10.75,10.75,0,0,1,2.07-.63A11.11,11.11,0,0,1,320.78,230.6Z"/><text class="cls-12" transform="translate(336.16 274.12)">Calculator</text><line class="cls-13" x1="457.01" y1="130.1" x2="562.88" y2="130.68"/><polygon points="566.66 130.7 561.61 133.19 562.88 130.68 561.64 128.16 566.66 130.7"/><polygon class="cls-13" points="566.66 130.7 561.61 133.19 562.88 130.68 561.64 128.16 566.66 130.7"/><text class="cls-8" transform="translate(631.95 140.3)">User</text><path class="cls-3" d="M578.72,101.09H703.9a11.14,11.14,0,0,1,2.16.21,10.75,10.75,0,0,1,2.07.63,11.68,11.68,0,0,1,1.91,1,10.86,10.86,0,0,1,3,3,10.66,10.66,0,0,1,1,1.91,11.47,11.47,0,0,1,.62,2.07,10.39,10.39,0,0,1,.22,2.15v51.55a10.39,10.39,0,0,1-.22,2.15,11.47,11.47,0,0,1-.62,2.07,10.66,10.66,0,0,1-1,1.91,11.56,11.56,0,0,1-1.37,1.68,11,11,0,0,1-1.67,1.37,11.68,11.68,0,0,1-1.91,1,10.75,10.75,0,0,1-2.07.63,11.14,11.14,0,0,1-2.16.21H578.72a11.22,11.22,0,0,1-2.16-.21,10.75,10.75,0,0,1-2.07-.63,11.68,11.68,0,0,1-1.91-1,11,11,0,0,1-1.67-1.37,11.56,11.56,0,0,1-1.37-1.68,10,10,0,0,1-1-1.91,10.75,10.75,0,0,1-.63-2.07,11.12,11.12,0,0,1-.22-2.15V112.13a11.12,11.12,0,0,1,.22-2.15,10.75,10.75,0,0,1,.63-2.07,10,10,0,0,1,1-1.91,10.86,10.86,0,0,1,3-3,11.68,11.68,0,0,1,1.91-1,10.75,10.75,0,0,1,2.07-.63A11.22,11.22,0,0,1,578.72,101.09Z"/><path class="cls-5" d="M578.72,101.09H703.9a11.14,11.14,0,0,1,2.16.21,10.75,10.75,0,0,1,2.07.63,11.68,11.68,0,0,1,1.91,1,10.86,10.86,0,0,1,3,3,10.66,10.66,0,0,1,1,1.91,11.47,11.47,0,0,1,.62,2.07,10.39,10.39,0,0,1,.22,2.15v51.55a10.39,10.39,0,0,1-.22,2.15,11.47,11.47,0,0,1-.62,2.07,10.66,10.66,0,0,1-1,1.91,11.56,11.56,0,0,1-1.37,1.68,11,11,0,0,1-1.67,1.37,11.68,11.68,0,0,1-1.91,1,10.75,10.75,0,0,1-2.07.63,11.14,11.14,0,0,1-2.16.21H578.72a11.22,11.22,0,0,1-2.16-.21,10.75,10.75,0,0,1-2.07-.63,11.68,11.68,0,0,1-1.91-1,11,11,0,0,1-1.67-1.37,11.56,11.56,0,0,1-1.37-1.68,10,10,0,0,1-1-1.91,10.75,10.75,0,0,1-.63-2.07,11.12,11.12,0,0,1-.22-2.15V112.13a11.12,11.12,0,0,1,.22-2.15,10.75,10.75,0,0,1,.63-2.07,10,10,0,0,1,1-1.91,10.86,10.86,0,0,1,3-3,11.68,11.68,0,0,1,1.91-1,10.75,10.75,0,0,1,2.07-.63A11.22,11.22,0,0,1,578.72,101.09Z"/><text class="cls-12" transform="translate(600.83 144.62)">Interface</text><text class="cls-8" transform="translate(373.65 419.46)">User</text><path class="cls-14" d="M320.78,380.18H446a10.39,10.39,0,0,1,2.15.22,11.47,11.47,0,0,1,2.07.62,11.28,11.28,0,0,1,1.91,1,12.33,12.33,0,0,1,1.68,1.38,11,11,0,0,1,1.37,1.67,11.28,11.28,0,0,1,1,1.91,10.75,10.75,0,0,1,.63,2.07,11.14,11.14,0,0,1,.21,2.16v51.54a11.14,11.14,0,0,1-.21,2.16,10.75,10.75,0,0,1-.63,2.07,11.68,11.68,0,0,1-1,1.91,11,11,0,0,1-1.37,1.67A11.56,11.56,0,0,1,452.1,452a10.66,10.66,0,0,1-1.91,1,11.47,11.47,0,0,1-2.07.62,10.39,10.39,0,0,1-2.15.22H320.78a10.39,10.39,0,0,1-2.15-.22,11.47,11.47,0,0,1-2.07-.62,10.66,10.66,0,0,1-1.91-1,10.86,10.86,0,0,1-3-3,11.68,11.68,0,0,1-1-1.91,10.75,10.75,0,0,1-.63-2.07,11.14,11.14,0,0,1-.21-2.16V391.23a11.14,11.14,0,0,1,.21-2.16,10.75,10.75,0,0,1,.63-2.07,11.28,11.28,0,0,1,1-1.91,11,11,0,0,1,1.37-1.67,11.75,11.75,0,0,1,1.68-1.38,11.28,11.28,0,0,1,1.91-1,11.47,11.47,0,0,1,2.07-.62A10.39,10.39,0,0,1,320.78,380.18Z"/><path class="cls-15" d="M320.78,380.18H446a10.39,10.39,0,0,1,2.15.22,11.47,11.47,0,0,1,2.07.62,11.28,11.28,0,0,1,1.91,1,12.33,12.33,0,0,1,1.68,1.38,11,11,0,0,1,1.37,1.67,11.28,11.28,0,0,1,1,1.91,10.75,10.75,0,0,1,.63,2.07,11.14,11.14,0,0,1,.21,2.16v51.54a11.14,11.14,0,0,1-.21,2.16,10.75,10.75,0,0,1-.63,2.07,11.68,11.68,0,0,1-1,1.91,11,11,0,0,1-1.37,1.67A11.56,11.56,0,0,1,452.1,452a10.66,10.66,0,0,1-1.91,1,11.47,11.47,0,0,1-2.07.62,10.39,10.39,0,0,1-2.15.22H320.78a10.39,10.39,0,0,1-2.15-.22,11.47,11.47,0,0,1-2.07-.62,10.66,10.66,0,0,1-1.91-1,10.86,10.86,0,0,1-3-3,11.68,11.68,0,0,1-1-1.91,10.75,10.75,0,0,1-.63-2.07,11.14,11.14,0,0,1-.21-2.16V391.23a11.14,11.14,0,0,1,.21-2.16,10.75,10.75,0,0,1,.63-2.07,11.28,11.28,0,0,1,1-1.91,11,11,0,0,1,1.37-1.67,11.75,11.75,0,0,1,1.68-1.38,11.28,11.28,0,0,1,1.91-1,11.47,11.47,0,0,1,2.07-.62A10.39,10.39,0,0,1,320.78,380.18Z"/><text class="cls-12" transform="translate(340.8 411.55)">Numbers</text><text class="cls-12" transform="translate(425.44 411.55)"> </text><text class="cls-12" transform="translate(354.12 436.73)">button</text><text class="cls-12" transform="translate(412.13 436.73)"> </text><text class="cls-8" transform="translate(560 419.46)">User</text><path class="cls-16" d="M506.77,380.18H632a10.42,10.42,0,0,1,2.16.22,11.47,11.47,0,0,1,2.07.62,11.28,11.28,0,0,1,1.91,1,11.66,11.66,0,0,1,1.67,1.38,11,11,0,0,1,1.38,1.67,11.28,11.28,0,0,1,1,1.91,12.37,12.37,0,0,1,.63,2.07,11.14,11.14,0,0,1,.21,2.16v51.54a11.14,11.14,0,0,1-.21,2.16,12.37,12.37,0,0,1-.63,2.07,11.68,11.68,0,0,1-1,1.91,11.22,11.22,0,0,1-3,3,10.66,10.66,0,0,1-1.91,1,11.47,11.47,0,0,1-2.07.62,10.42,10.42,0,0,1-2.16.22H506.77a10.32,10.32,0,0,1-2.15-.22,11.33,11.33,0,0,1-2.08-.62,11.09,11.09,0,0,1-5-4.07,10.33,10.33,0,0,1-1-1.91,10.75,10.75,0,0,1-.63-2.07,11.14,11.14,0,0,1-.21-2.16V391.23a11.14,11.14,0,0,1,.21-2.16,10.75,10.75,0,0,1,.63-2.07,10,10,0,0,1,1-1.91,11,11,0,0,1,1.37-1.67,10.84,10.84,0,0,1,3.58-2.4,11.33,11.33,0,0,1,2.08-.62A10.32,10.32,0,0,1,506.77,380.18Z"/><path class="cls-17" d="M506.77,380.18H632a10.42,10.42,0,0,1,2.16.22,11.47,11.47,0,0,1,2.07.62,11.28,11.28,0,0,1,1.91,1,11.66,11.66,0,0,1,1.67,1.38,11,11,0,0,1,1.38,1.67,11.28,11.28,0,0,1,1,1.91,12.37,12.37,0,0,1,.63,2.07,11.14,11.14,0,0,1,.21,2.16v51.54a11.14,11.14,0,0,1-.21,2.16,12.37,12.37,0,0,1-.63,2.07,11.68,11.68,0,0,1-1,1.91,11.22,11.22,0,0,1-3,3,10.66,10.66,0,0,1-1.91,1,11.47,11.47,0,0,1-2.07.62,10.42,10.42,0,0,1-2.16.22H506.77a10.32,10.32,0,0,1-2.15-.22,11.33,11.33,0,0,1-2.08-.62,11.09,11.09,0,0,1-5-4.07,10.33,10.33,0,0,1-1-1.91,10.75,10.75,0,0,1-.63-2.07,11.14,11.14,0,0,1-.21-2.16V391.23a11.14,11.14,0,0,1,.21-2.16,10.75,10.75,0,0,1,.63-2.07,10,10,0,0,1,1-1.91,11,11,0,0,1,1.37-1.67,10.84,10.84,0,0,1,3.58-2.4,11.33,11.33,0,0,1,2.08-.62A10.32,10.32,0,0,1,506.77,380.18Z"/><text class="cls-12" transform="translate(518.43 411.55)">Operations</text><text class="cls-12" transform="translate(620.49 411.55)"> </text><text class="cls-12" transform="translate(535.24 436.73)">buttons</text><text class="cls-12" transform="translate(603.68 436.73)"> </text><text class="cls-8" transform="translate(631.95 269.81)">User</text><path class="cls-18" d="M578.72,230.6H703.9a11.14,11.14,0,0,1,2.16.21,10.75,10.75,0,0,1,2.07.63,10.33,10.33,0,0,1,1.91,1,11.17,11.17,0,0,1,4.07,4.95,11.47,11.47,0,0,1,.62,2.07,10.49,10.49,0,0,1,.22,2.16v51.54a10.42,10.42,0,0,1-.22,2.16,11.47,11.47,0,0,1-.62,2.07,10.66,10.66,0,0,1-1,1.91,11.22,11.22,0,0,1-3,3.05,11.68,11.68,0,0,1-1.91,1,12.37,12.37,0,0,1-2.07.63,11.14,11.14,0,0,1-2.16.21H578.72a11.22,11.22,0,0,1-2.16-.21,12.37,12.37,0,0,1-2.07-.63,11.68,11.68,0,0,1-1.91-1,11.22,11.22,0,0,1-3-3.05,10,10,0,0,1-1-1.91,10.75,10.75,0,0,1-.63-2.07,11.15,11.15,0,0,1-.22-2.16V241.64a11.23,11.23,0,0,1,.22-2.16,10.75,10.75,0,0,1,.63-2.07,10.33,10.33,0,0,1,1-1.91,11,11,0,0,1,3-3,10.33,10.33,0,0,1,1.91-1,10.75,10.75,0,0,1,2.07-.63A11.22,11.22,0,0,1,578.72,230.6Z"/><path class="cls-19" d="M578.72,230.6H703.9a11.14,11.14,0,0,1,2.16.21,10.75,10.75,0,0,1,2.07.63,10.33,10.33,0,0,1,1.91,1,11.17,11.17,0,0,1,4.07,4.95,11.47,11.47,0,0,1,.62,2.07,10.49,10.49,0,0,1,.22,2.16v51.54a10.42,10.42,0,0,1-.22,2.16,11.47,11.47,0,0,1-.62,2.07,10.66,10.66,0,0,1-1,1.91,11.22,11.22,0,0,1-3,3.05,11.68,11.68,0,0,1-1.91,1,12.37,12.37,0,0,1-2.07.63,11.14,11.14,0,0,1-2.16.21H578.72a11.22,11.22,0,0,1-2.16-.21,12.37,12.37,0,0,1-2.07-.63,11.68,11.68,0,0,1-1.91-1,11.22,11.22,0,0,1-3-3.05,10,10,0,0,1-1-1.91,10.75,10.75,0,0,1-.63-2.07,11.15,11.15,0,0,1-.22-2.16V241.64a11.23,11.23,0,0,1,.22-2.16,10.75,10.75,0,0,1,.63-2.07,10.33,10.33,0,0,1,1-1.91,11,11,0,0,1,3-3,10.33,10.33,0,0,1,1.91-1,10.75,10.75,0,0,1,2.07-.63A11.22,11.22,0,0,1,578.72,230.6Z"/><text class="cls-12" transform="translate(584.58 274.12)">Calculations</text><text class="cls-8" transform="translate(747.06 419.46)">User</text><path class="cls-20" d="M693.84,380.18H819a10.39,10.39,0,0,1,2.15.22,11.33,11.33,0,0,1,2.08.62,10.84,10.84,0,0,1,3.58,2.4,11,11,0,0,1,1.37,1.67,10,10,0,0,1,1,1.91,10.75,10.75,0,0,1,.63,2.07,11.14,11.14,0,0,1,.21,2.16v51.54a11.14,11.14,0,0,1-.21,2.16,10.75,10.75,0,0,1-.63,2.07,10.33,10.33,0,0,1-1,1.91,11.17,11.17,0,0,1-5,4.07,11.33,11.33,0,0,1-2.08.62,10.39,10.39,0,0,1-2.15.22H693.84a10.42,10.42,0,0,1-2.16-.22,11.47,11.47,0,0,1-2.07-.62,10.66,10.66,0,0,1-1.91-1,11.22,11.22,0,0,1-3.05-3,11.68,11.68,0,0,1-1-1.91,12.37,12.37,0,0,1-.63-2.07,11.14,11.14,0,0,1-.21-2.16V391.23a11.14,11.14,0,0,1,.21-2.16,12.37,12.37,0,0,1,.63-2.07,11.28,11.28,0,0,1,1-1.91,11,11,0,0,1,1.38-1.67A11.66,11.66,0,0,1,687.7,382a11.28,11.28,0,0,1,1.91-1,11.47,11.47,0,0,1,2.07-.62A10.42,10.42,0,0,1,693.84,380.18Z"/><path class="cls-21" d="M693.84,380.18H819a10.39,10.39,0,0,1,2.15.22,11.33,11.33,0,0,1,2.08.62,10.84,10.84,0,0,1,3.58,2.4,11,11,0,0,1,1.37,1.67,10,10,0,0,1,1,1.91,10.75,10.75,0,0,1,.63,2.07,11.14,11.14,0,0,1,.21,2.16v51.54a11.14,11.14,0,0,1-.21,2.16,10.75,10.75,0,0,1-.63,2.07,10.33,10.33,0,0,1-1,1.91,11.17,11.17,0,0,1-5,4.07,11.33,11.33,0,0,1-2.08.62,10.39,10.39,0,0,1-2.15.22H693.84a10.42,10.42,0,0,1-2.16-.22,11.47,11.47,0,0,1-2.07-.62,10.66,10.66,0,0,1-1.91-1,11.22,11.22,0,0,1-3.05-3,11.68,11.68,0,0,1-1-1.91,12.37,12.37,0,0,1-.63-2.07,11.14,11.14,0,0,1-.21-2.16V391.23a11.14,11.14,0,0,1,.21-2.16,12.37,12.37,0,0,1,.63-2.07,11.28,11.28,0,0,1,1-1.91,11,11,0,0,1,1.38-1.67A11.66,11.66,0,0,1,687.7,382a11.28,11.28,0,0,1,1.91-1,11.47,11.47,0,0,1,2.07-.62A10.42,10.42,0,0,1,693.84,380.18Z"/><text class="cls-12" transform="translate(724.06 411.55)">Cancel</text><text class="cls-12" transform="translate(789.01 411.55)"> </text><text class="cls-12" transform="translate(727.54 436.73)">button</text><text class="cls-12" transform="translate(785.54 436.73)"> </text><path d="M574.68,309.42l.08,0,.22.68-.08,0m-4.33.63,2.06-.66.22.69-2.06.66m-4.33.63,2.06-.66.22.69-2,.66m-4.33.63,2-.66.22.69-2,.66m-4.33.63,2-.66.22.69-2,.66m-4.33.64,2.05-.67.22.69-2,.66m-4.33.64,2.05-.66.22.68-2,.66m-4.33.64L548,318l.22.68-2.05.66m-4.33.64,2.05-.66.22.68-2.05.66m-4.33.64,2-.66.22.68-2.05.66m-4.33.64,2-.66.22.68-2.05.67m-4.33.63,2-.66.22.69-2,.66m-4.33.63,2-.66.22.69-2,.66m-4.33.63,2-.66.22.69-2,.66m-4.33.63,2.05-.66.22.69-2,.66m-4.33.64,2.05-.67.22.69-2,.66m-4.33.64,2.05-.66.22.68-2.05.66m-4.33.64,2.05-.66.22.68-2,.66m-4.33.64,2.05-.66.22.68-2.05.66m-4.33.64,2-.66.22.68-2.05.66m-4.33.64,2.05-.66.22.68-2.05.67m-4.33.63,2.05-.66.22.69-2,.66m-4.33.63,2.05-.66.22.69-2.05.66m-4.33.63,2-.66.22.69-2.05.66m-4.33.63,2.05-.66.22.69-2.05.66m-4.33.64,2.05-.66.22.68-2,.66m-4.33.64,2.05-.66.22.68-2.05.66m-4.33.64,2-.66.22.68-2.05.66m-4.33.64,2.05-.66.22.68-2.05.66m-4.33.64,2.05-.66.22.68-2,.66m-4.33.64,2.05-.66.22.69-2.05.66m-4.33.63,2.05-.66.23.69-2.06.66m-4.33.63,2.06-.66.22.69-2.06.66m-4.33.63,2.06-.66.22.69-2.06.66m-4.33.63,2.06-.66.22.69-2.06.66m-4.33.64,2.06-.66.22.68-2.06.66m-4.33.64,2.06-.66.22.68-2.06.66m-4.33.64,2.06-.66.22.68-2.06.66m-4.33.64,2.06-.66.22.68-2.06.66m-4.33.64,2.06-.66.22.68-2.06.66m-4.33.64,2.06-.66.22.69-2.06.66m-4.33.63,2.06-.66.22.69-2.06.66m-4.33.63,2.06-.66.22.69-2.06.66m-4.33.63,2.06-.66.22.69-2.06.66m-4.33.63,2.06-.66.22.69-2.06.66m-4.33.64,2.06-.66.22.68-2.06.66m-4.33.64,2.06-.66.22.68-2.06.66m-4.33.64,2.06-.66.22.68-2.06.66m-4.33.64,2.06-.66.22.68-2.06.66m-4.33.64,2.06-.66.22.68-2.06.66"/><path d="M624.77,309.72l.19-.22.54.48-.2.22M621.9,313l1.43-1.61.54.47-1.43,1.62M619,316.18l1.43-1.62.54.48-1.43,1.61m-3.41,2.75,1.44-1.61.53.48-1.43,1.61m-3.41,2.75,1.44-1.61.54.47-1.44,1.62m-3.4,2.75,1.43-1.62.54.48L611,326.33m-3.4,2.75,1.43-1.61.54.48-1.43,1.61m-3.41,2.75,1.43-1.61.54.47-1.43,1.62m-3.41,2.75,1.44-1.62.53.48L602.36,336M599,338.76l1.44-1.61.54.48-1.44,1.61m-3.4,2.75,1.43-1.61.54.47-1.44,1.62m-3.4,2.74,1.43-1.61.54.48-1.43,1.61m-3.41,2.75,1.43-1.61.54.48-1.43,1.61m-3.41,2.75,1.44-1.62.53.48L588,352.15m-3.41,2.74,1.44-1.61.54.48-1.44,1.61m-3.4,2.75,1.43-1.61.54.48-1.44,1.61m-3.4,2.75,1.43-1.62.54.48-1.43,1.62M576,364.57l1.43-1.61.54.48-1.43,1.61m-3.41,2.75,1.44-1.61.53.48-1.43,1.61M570.27,371l1.44-1.62.54.48-1.44,1.61m-3.4,2.75,1.43-1.61.54.48-1.44,1.61"/><path d="M682.58,317.23h0l.44-.57h0m3,3.22-1.7-1.33.44-.57,1.7,1.33m3,3.22-1.71-1.33.44-.57,1.71,1.33m3,3.22-1.7-1.33.44-.57,1.71,1.33m3,3.22-1.7-1.33.44-.57,1.7,1.33m3,3.22-1.7-1.33.44-.57,1.7,1.33m3,3.22-1.71-1.33.44-.57,1.71,1.33m3,3.22-1.7-1.33.44-.57,1.71,1.33m3,3.22-1.7-1.33.44-.57,1.7,1.33m3,3.22-1.7-1.33.44-.56,1.7,1.32m3,3.22L715,342.4l.44-.56,1.71,1.32m3,3.22-1.7-1.33.44-.56,1.71,1.32m3,3.22-1.7-1.33.44-.56,1.7,1.32m3,3.22-1.7-1.33.44-.56,1.7,1.32m3,3.22L728.58,353l.45-.56,1.7,1.32m3,3.22-1.7-1.32.44-.57,1.71,1.32m3,3.22-1.7-1.32.44-.57,1.7,1.32m3,3.22-1.7-1.32.44-.57,1.7,1.32m3,3.22-1.71-1.32.45-.57,1.7,1.32m3,3.22-1.71-1.32.44-.57,1.71,1.32"/><line class="cls-13" x1="641.31" y1="230.6" x2="641.31" y2="179.3"/><polygon points="641.31 175.53 643.83 180.56 641.31 179.3 638.79 180.56 641.31 175.53"/><polygon class="cls-13" points="641.31 175.53 643.83 180.56 641.31 179.3 638.79 180.56 641.31 175.53"/><rect class="cls-3" x="504.36" y="195.7" width="274.12" height="13.67"/><text class="cls-22" transform="translate(504.49 206.49)">Calculations will displayed on interface for user to see</text><rect class="cls-3" x="627.39" y="196.42" width="28.06" height="13.67"/><text class="cls-22" transform="translate(627.34 207.21)">Label</text><line class="cls-13" x1="457.01" y1="267.41" x2="563.09" y2="267.41"/><polygon points="566.87 267.41 561.83 269.93 563.09 267.41 561.83 264.89 566.87 267.41"/><polygon class="cls-13" points="566.87 267.41 561.83 269.93 563.09 267.41 561.83 264.89 566.87 267.41"/><rect class="cls-3" x="465.51" y="219.44" width="89.94" height="41.01"/><text class="cls-22" transform="translate(469.21 230.24)">Calculator uses </text><text class="cls-22" transform="translate(551.74 230.24)"> </text><text class="cls-22" transform="translate(465.69 243.91)">Users interaction</text><text class="cls-22" transform="translate(552.06 243.91)"> </text><text class="cls-22" transform="translate(555.25 243.91)"> </text><text class="cls-22" transform="translate(466 257.58)">to do calculations</text><text class="cls-22" transform="translate(371.24 475.58)">0 - 9</text><text class="cls-22" transform="translate(521.8 468.39)">divided / multiplied /</text><text class="cls-22" transform="translate(519.23 482.78)">addition / subtraction</text><text class="cls-22" transform="translate(716.66 468.39)">remove whats on</text><text class="cls-22" transform="translate(723.7 482.78)">display screen</text><text class="cls-22" transform="translate(472.52 99.29)">User will only see</text><text class="cls-22" transform="translate(487.23 112.96)">buttons and</text><text class="cls-22" transform="translate(495.23 126.63)">interface</text></g></svg>