<?xml version="1.0" encoding="utf-8"?>
<!-- Generator: Adobe Illustrator 26.0.1, SVG Export Plug-In . SVG Version: 6.00 Build 0)  -->
<svg version="1.1" id="Layer_1" xmlns="http://www.w3.org/2000/svg" xmlns:xlink="http://www.w3.org/1999/xlink" x="0px" y="0px"
	 viewBox="0 0 60 60" style="enable-background:new 0 0 60 60;" xml:space="preserve">
<style type="text/css">
	.st0{opacity:0.4;fill:#DEF2F1;}
</style>
<path class="st0" d="M54.6,9.6l-9.5-3.2c-0.6-0.2-1.3-0.1-1.9,0.3L21.9,23.1L11,16.5c-0.6-0.3-1.2-0.4-1.8-0.1l-4,1.8
	C4.5,18.5,4,19.2,4,20v20c0,0.8,0.5,1.5,1.2,1.8l4,1.8c0.6,0.3,1.3,0.2,1.8-0.1L21.8,37l21.4,16.4c0.4,0.3,0.8,0.4,1.2,0.4
	c0.2,0,0.4,0,0.6-0.1l9.5-3.2c0.8-0.3,1.4-1,1.4-1.9v-37C56,10.6,55.5,9.9,54.6,9.6z M12,33.5v-7.1l5.8,3.5L12,33.5z M44,39.4
	L30.1,30L44,20.6V39.4z"/>
</svg>
