<?xml version="1.0" encoding="utf-8"?>
<!-- Generator: Adobe Illustrator 26.0.1, SVG Export Plug-In . SVG Version: 6.00 Build 0)  -->
<svg version="1.1" id="Layer_1" xmlns="http://www.w3.org/2000/svg" xmlns:xlink="http://www.w3.org/1999/xlink" x="0px" y="0px"
	 viewBox="0 0 60 60" style="enable-background:new 0 0 60 60;" xml:space="preserve">
<style type="text/css">
	.st0{opacity:0.4;fill:#DEF2F1;}
</style>
<path class="st0" d="M50.9,6.7C50.5,6.2,49.9,6,49.4,6H10.6c-0.6,0-1.1,0.2-1.5,0.7s-0.6,1-0.5,1.6L13,47.9c0.1,0.8,0.7,1.5,1.4,1.7
	l15,4.3c0.2,0.1,0.4,0.1,0.5,0.1s0.4,0,0.5-0.1l15-4.3c0.8-0.2,1.3-0.9,1.4-1.7l4.4-39.6C51.4,7.7,51.2,7.1,50.9,6.7z M41,26.1
	l-0.9,14.6L30.1,44L20,40.7l-0.4-7h5.1l0.1,3.2l5.2,1.8l5.2-1.8l0.4-5.7H24.5l-0.3-5.1h11.7l0.4-5.1H18.7L18.3,16h23.3L41,26.1z"/>
</svg>
