<?xml version="1.0" encoding="utf-8"?>
<!-- Generator: Adobe Illustrator 26.0.1, SVG Export Plug-In . SVG Version: 6.00 Build 0)  -->
<svg version="1.1" id="Layer_1" xmlns="http://www.w3.org/2000/svg" xmlns:xlink="http://www.w3.org/1999/xlink" x="0px" y="0px"
	 viewBox="0 0 60 60" style="enable-background:new 0 0 60 60;" xml:space="preserve">
<style type="text/css">
	.st0{opacity:0.4;fill:#DEF2F1;}
</style>
<path class="st0" d="M30,45H10c-0.7,0-1.5-0.1-2.2-0.4c-0.1-0.1-0.3-0.1-0.4-0.2c-0.1-0.1-0.1-0.1,0-0.2s0.3-0.3,0.5-0.4l5.9-4.3
	l10.7-8l0.4-0.3c0.2-0.2,0.2-0.2,0.5,0c0.5,0.4,1.1,0.8,1.7,1.2c0.9,0.7,2,1,3.1,0.9c0.9,0,1.8-0.3,2.5-0.9l1.8-1.3
	c0.2-0.2,0.2-0.2,0.5,0l3.8,2.9l12,8.9l1.6,1.2c0.2,0.1,0.2,0.2,0,0.3c-0.7,0.4-1.5,0.6-2.2,0.6H30L30,45z"/>
<path class="st0" d="M30,15h20c0.5,0,1,0.1,1.5,0.2c0.1,0,0.2,0,0.3,0.1s-0.1,0.2-0.2,0.2l-8,6l-4.2,3.1c-2.7,2-5.4,4-8,6
	c-0.8,0.5-1.9,0.5-2.7,0c-2.4-1.8-4.7-3.5-7-5.2l-10.5-7.8l-2.8-2c-0.1,0-0.1-0.1-0.2-0.1c-0.2-0.1-0.1-0.2,0-0.2
	C8.7,15.1,9.1,15,9.5,15H30L30,15z"/>
<path class="st0" d="M55,30c0,3.3,0,6.7,0,10c0,0.7-0.1,1.5-0.4,2.2v0.1c-0.2,0.3-0.2,0.3-0.5,0.1L49.6,39l-10.5-7.8l-2-1.5
	c-0.3-0.2-0.3-0.2,0-0.4l9.6-7.1l6.9-5.1l0.2-0.1c0.2-0.1,0.2-0.1,0.3,0c0.2,0.3,0.4,0.6,0.5,0.9c0.3,0.6,0.4,1.4,0.4,2.1
	C55,23.3,55,26.7,55,30z"/>
<path class="st0" d="M5,30V19.9c0-1,0.3-2,0.9-2.9l0,0c0.1-0.2,0.2-0.2,0.4,0L7,17.5c2.9,2.2,5.8,4.3,8.8,6.5l7.1,5.3
	c0.3,0.2,0.4,0.2,0,0.5l-11.4,8.4L6,42.3c-0.3,0.2-0.3,0.2-0.5-0.1c-0.3-0.6-0.5-1.3-0.5-2V30z"/>
</svg>
