<svg id="Layer_1" data-name="Layer 1" xmlns="http://www.w3.org/2000/svg" xmlns:xlink="http://www.w3.org/1999/xlink" viewBox="0 0 1008 613.72"><defs><style>.cls-1,.cls-10,.cls-12,.cls-15,.cls-17,.cls-21,.cls-22,.cls-5{fill:none;}.cls-2{clip-path:url(#clip-path);}.cls-3{fill:#fff;}.cls-4{clip-path:url(#clip-path-2);}.cls-12,.cls-17,.cls-5{stroke:#000;}.cls-10,.cls-12,.cls-15,.cls-17,.cls-21,.cls-22,.cls-5{stroke-width:0.72px;}.cls-6{clip-path:url(#clip-path-3);}.cls-7{font-size:17.27px;font-family:Arial-BoldMT, Arial;font-weight:700;}.cls-8{font-size:8.63px;}.cls-11,.cls-13,.cls-16,.cls-18,.cls-19,.cls-25,.cls-8{font-family:ArialMT, Arial;}.cls-9{fill:#e1d5e7;}.cls-10,.cls-22{stroke:#9673a6;}.cls-11,.cls-19{font-size:15.11px;}.cls-12{stroke-miterlimit:1.42;}.cls-13{font-size:16.55px;}.cls-14{fill:#ffe6cc;}.cls-15{stroke:#d79b00;}.cls-16{font-size:20.87px;}.cls-17,.cls-22{stroke-miterlimit:10;}.cls-18{font-size:7.91px;}.cls-19{fill:#333;}.cls-20{fill:#dae8fc;}.cls-21{stroke:#6c8ebf;}.cls-23{opacity:0.05;}.cls-24{opacity:0.1;}.cls-25{font-size:11.51px;}</style><clipPath id="clip-path"><rect class="cls-1" width="1008" height="613.72"/></clipPath><clipPath id="clip-path-2"><rect class="cls-1" width="1008" height="612.28"/></clipPath><clipPath id="clip-path-3"><rect class="cls-1" x="33.1" y="46.05" width="183.47" height="289.23"/></clipPath></defs><g class="cls-2"><rect class="cls-3" width="1008" height="613.72"/><rect class="cls-3" width="1008" height="612.28"/></g><g class="cls-4"><rect class="cls-3" x="17.62" y="29.14" width="214.77" height="533.86"/><rect class="cls-5" x="17.62" y="29.14" width="214.77" height="533.86"/></g><g class="cls-6"><text class="cls-7" transform="translate(33.1 73.39)">Features</text><text class="cls-8" transform="translate(33.1 97.85)">1. User can control a bird to fly through</text><text class="cls-8" transform="translate(181.87 97.85)"> </text><text class="cls-8" transform="translate(184.26 97.85)"> </text><text class="cls-8" transform="translate(186.66 97.85)"> </text><text class="cls-8" transform="translate(189.06 97.85)"> </text><text class="cls-8" transform="translate(191.46 97.85)"> </text><text class="cls-8" transform="translate(193.86 97.85)"> </text><text class="cls-8" transform="translate(196.26 97.85)"> </text><text class="cls-8" transform="translate(198.66 97.85)"> </text><text class="cls-8" transform="translate(201.06 97.85)"> </text><text class="cls-8" transform="translate(203.45 97.85)"> </text><text class="cls-8" transform="translate(205.85 97.85)"> </text><text class="cls-8" transform="translate(208.25 97.85)"> </text><text class="cls-8" transform="translate(210.65 97.85)"> </text><text class="cls-8" transform="translate(33.1 107.92)"> </text><text class="cls-8" transform="translate(35.5 107.92)"> </text><text class="cls-8" transform="translate(37.89 107.92)"> </text><text class="cls-8" transform="translate(40.29 107.92)"><tspan xml:space="preserve"> approaching obstacles by pressing the</tspan></text><text class="cls-8" transform="translate(190.04 107.92)"> </text><text class="cls-8" transform="translate(192.44 107.92)"> </text><text class="cls-8" transform="translate(194.84 107.92)"> </text><text class="cls-8" transform="translate(197.24 107.92)"> </text><text class="cls-8" transform="translate(199.64 107.92)"> </text><text class="cls-8" transform="translate(202.03 107.92)"> </text><text class="cls-8" transform="translate(204.43 107.92)"> </text><text class="cls-8" transform="translate(206.83 107.92)"> </text><text class="cls-8" transform="translate(209.23 107.92)"> </text><text class="cls-8" transform="translate(211.63 107.92)"> </text><text class="cls-8" transform="translate(214.03 107.92)"> </text><text class="cls-8" transform="translate(33.1 118.72)"> </text><text class="cls-8" transform="translate(35.5 118.72)"> </text><text class="cls-8" transform="translate(37.89 118.72)"> </text><text class="cls-8" transform="translate(40.29 118.72)"><tspan xml:space="preserve"> space key repeatedly</tspan></text><text class="cls-8" transform="translate(123.64 118.72)">. The trick is to press</text><text class="cls-8" transform="translate(203.29 118.72)"> </text><text class="cls-8" transform="translate(205.68 118.72)"> </text><text class="cls-8" transform="translate(208.08 118.72)"> </text><text class="cls-8" transform="translate(210.48 118.72)"> </text><text class="cls-8" transform="translate(212.88 118.72)"> </text><text class="cls-8" transform="translate(33.1 128.79)"> </text><text class="cls-8" transform="translate(35.5 128.79)"> </text><text class="cls-8" transform="translate(37.89 128.79)"> </text><text class="cls-8" transform="translate(40.29 128.79)"><tspan xml:space="preserve"> just the right amount so the bird does not</tspan></text><text class="cls-8" transform="translate(199.15 128.79)"> </text><text class="cls-8" transform="translate(201.55 128.79)"> </text><text class="cls-8" transform="translate(203.95 128.79)"> </text><text class="cls-8" transform="translate(206.35 128.79)"> </text><text class="cls-8" transform="translate(208.75 128.79)"> </text><text class="cls-8" transform="translate(211.15 128.79)"> </text><text class="cls-8" transform="translate(213.55 128.79)"> </text><text class="cls-8" transform="translate(33.1 139.58)"> </text><text class="cls-8" transform="translate(35.5 139.58)"> </text><text class="cls-8" transform="translate(37.89 139.58)"> </text><text class="cls-8" transform="translate(40.29 139.58)"><tspan xml:space="preserve"> touch the edges of the obstacles</tspan></text><text class="cls-8" transform="translate(167.01 139.58)"> </text><text class="cls-8" transform="translate(169.41 139.58)"> </text><text class="cls-8" transform="translate(171.81 139.58)"> </text><text class="cls-8" transform="translate(174.21 139.58)"> </text><text class="cls-8" transform="translate(176.6 139.58)"> </text><text class="cls-8" transform="translate(179 139.58)"> </text><text class="cls-8" transform="translate(181.4 139.58)"> </text><text class="cls-8" transform="translate(183.8 139.58)"> </text><text class="cls-8" transform="translate(186.2 139.58)"> </text><text class="cls-8" transform="translate(188.6 139.58)"> </text><text class="cls-8" transform="translate(191 139.58)"> </text><text class="cls-8" transform="translate(193.4 139.58)"> </text><text class="cls-8" transform="translate(195.79 139.58)"> </text><text class="cls-8" transform="translate(198.19 139.58)"> </text><text class="cls-8" transform="translate(200.59 139.58)"> </text><text class="cls-8" transform="translate(202.99 139.58)"> </text><text class="cls-8" transform="translate(205.39 139.58)"> </text><text class="cls-8" transform="translate(207.79 139.58)"> </text><text class="cls-8" transform="translate(210.19 139.58)"> </text><text class="cls-8" transform="translate(33.1 149.65)"> </text><text class="cls-8" transform="translate(35.5 149.65)"> </text><text class="cls-8" transform="translate(37.89 149.65)"> </text><text class="cls-8" transform="translate(40.29 149.65)"> </text><text class="cls-8" transform="translate(42.69 149.65)"> </text><text class="cls-8" transform="translate(45.09 149.65)"> </text><text class="cls-8" transform="translate(47.49 149.65)"> </text><text class="cls-8" transform="translate(49.89 149.65)"> </text><text class="cls-8" transform="translate(52.29 149.65)"> </text><text class="cls-8" transform="translate(54.69 149.65)"> </text><text class="cls-8" transform="translate(57.08 149.65)"> </text><text class="cls-8" transform="translate(59.48 149.65)"> </text><text class="cls-8" transform="translate(61.88 149.65)"> </text><text class="cls-8" transform="translate(64.28 149.65)"> </text><text class="cls-8" transform="translate(66.68 149.65)"> </text><text class="cls-8" transform="translate(184.75 168.36)"> </text><text class="cls-8" transform="translate(187.14 168.36)"> </text><text class="cls-8" transform="translate(189.54 168.36)"> </text><text class="cls-8" transform="translate(191.94 168.36)"> </text><text class="cls-8" transform="translate(194.34 168.36)"> </text><text class="cls-8" transform="translate(196.74 168.36)"> </text><text class="cls-8" transform="translate(199.14 168.36)"> </text><text class="cls-8" transform="translate(201.54 168.36)"> </text><text class="cls-8" transform="translate(203.94 168.36)"> </text><text class="cls-8" transform="translate(206.33 168.36)"> </text><text class="cls-8" transform="translate(208.73 168.36)"> </text><text class="cls-8" transform="translate(211.13 168.36)"> </text><text class="cls-8" transform="translate(213.53 168.36)"> </text><text class="cls-8" transform="translate(33.1 179.15)"> </text><text class="cls-8" transform="translate(35.5 179.15)"> </text><text class="cls-8" transform="translate(37.89 179.15)"> </text><text class="cls-8" transform="translate(33.1 235.99)">Environment:</text><text class="cls-8" transform="translate(33.1 254.7)">1.</text><text class="cls-8" transform="translate(40.3 254.7)"> </text><text class="cls-8" transform="translate(42.69 254.7)">Obstacles that moves from right to left with</text><text class="cls-8" transform="translate(205.83 254.7)"> </text><text class="cls-8" transform="translate(208.23 254.7)"> </text><text class="cls-8" transform="translate(210.63 254.7)"> </text><text class="cls-8" transform="translate(33.1 265.49)"> </text><text class="cls-8" transform="translate(35.5 265.49)"> </text><text class="cls-8" transform="translate(37.89 265.49)"> </text><text class="cls-8" transform="translate(40.29 265.49)"><tspan xml:space="preserve"> the background</tspan></text><text class="cls-8" transform="translate(33.1 284.2)">3. Users game ends when they collide with</text><text class="cls-8" transform="translate(196.74 284.2)"> </text><text class="cls-8" transform="translate(199.14 284.2)"> </text><text class="cls-8" transform="translate(201.54 284.2)"> </text><text class="cls-8" transform="translate(203.94 284.2)"> </text><text class="cls-8" transform="translate(206.34 284.2)"> </text><text class="cls-8" transform="translate(208.74 284.2)"> </text><text class="cls-8" transform="translate(211.14 284.2)"> </text><text class="cls-8" transform="translate(33.1 294.27)"> </text><text class="cls-8" transform="translate(35.5 294.27)"> </text><text class="cls-8" transform="translate(37.89 294.27)"> </text><text class="cls-8" transform="translate(40.29 294.27)"><tspan xml:space="preserve"> with an obstacle</tspan></text><text class="cls-8" transform="translate(204.89 313.7)"> </text><text class="cls-8" transform="translate(207.29 313.7)"> </text><text class="cls-8" transform="translate(209.69 313.7)"> </text><text class="cls-8" transform="translate(33.1 323.77)"> </text><text class="cls-8" transform="translate(35.5 323.77)"> </text><text class="cls-8" transform="translate(37.89 323.77)"> </text></g><g class="cls-4"><path class="cls-9" d="M651.75,158.65H776.93a10.39,10.39,0,0,1,2.15.22,11.33,11.33,0,0,1,2.08.62,11.09,11.09,0,0,1,5,4.07,10.33,10.33,0,0,1,1,1.91,10.75,10.75,0,0,1,.63,2.07,11.14,11.14,0,0,1,.21,2.16v51.54a11.14,11.14,0,0,1-.21,2.16,10.75,10.75,0,0,1-.63,2.07,10.33,10.33,0,0,1-1,1.91,11.17,11.17,0,0,1-5,4.07,11.33,11.33,0,0,1-2.08.62,10.39,10.39,0,0,1-2.15.22H651.75a10.42,10.42,0,0,1-2.16-.22,11.47,11.47,0,0,1-2.07-.62,10.66,10.66,0,0,1-1.91-1,11.22,11.22,0,0,1-3.05-3,11.68,11.68,0,0,1-1-1.91,12.37,12.37,0,0,1-.63-2.07,11.14,11.14,0,0,1-.21-2.16V169.7a11.14,11.14,0,0,1,.21-2.16,12.37,12.37,0,0,1,.63-2.07,11.68,11.68,0,0,1,1-1.91,11.22,11.22,0,0,1,3.05-3,10.66,10.66,0,0,1,1.91-1,11.47,11.47,0,0,1,2.07-.62A10.42,10.42,0,0,1,651.75,158.65Z"/><path class="cls-10" d="M651.75,158.65H776.93a10.39,10.39,0,0,1,2.15.22,11.33,11.33,0,0,1,2.08.62,11.09,11.09,0,0,1,5,4.07,10.33,10.33,0,0,1,1,1.91,10.75,10.75,0,0,1,.63,2.07,11.14,11.14,0,0,1,.21,2.16v51.54a11.14,11.14,0,0,1-.21,2.16,10.75,10.75,0,0,1-.63,2.07,10.33,10.33,0,0,1-1,1.91,11.17,11.17,0,0,1-5,4.07,11.33,11.33,0,0,1-2.08.62,10.39,10.39,0,0,1-2.15.22H651.75a10.42,10.42,0,0,1-2.16-.22,11.47,11.47,0,0,1-2.07-.62,10.66,10.66,0,0,1-1.91-1,11.22,11.22,0,0,1-3.05-3,11.68,11.68,0,0,1-1-1.91,12.37,12.37,0,0,1-.63-2.07,11.14,11.14,0,0,1-.21-2.16V169.7a11.14,11.14,0,0,1,.21-2.16,12.37,12.37,0,0,1,.63-2.07,11.68,11.68,0,0,1,1-1.91,11.22,11.22,0,0,1,3.05-3,10.66,10.66,0,0,1,1.91-1,11.47,11.47,0,0,1,2.07-.62A10.42,10.42,0,0,1,651.75,158.65Z"/><text class="cls-11" transform="translate(671.33 200.74)">Environment</text><path class="cls-12" d="M630,196.59l-110.12.19V331.32m-2.88,0V193.9l113-.19"/><path class="cls-3" d="M293.08,43.53H418.27a11.11,11.11,0,0,1,2.15.21,10.75,10.75,0,0,1,2.07.63,11.28,11.28,0,0,1,1.91,1,11.56,11.56,0,0,1,1.68,1.37,11,11,0,0,1,1.37,1.68,11.28,11.28,0,0,1,1,1.91,10.75,10.75,0,0,1,.63,2.07,11.11,11.11,0,0,1,.21,2.15v51.55a11.11,11.11,0,0,1-.21,2.15,10.75,10.75,0,0,1-.63,2.07,11.28,11.28,0,0,1-1,1.91,11,11,0,0,1-1.37,1.68,11.56,11.56,0,0,1-1.68,1.37,11.28,11.28,0,0,1-1.91,1,10.75,10.75,0,0,1-2.07.63,11.11,11.11,0,0,1-2.15.21H293.08a11.11,11.11,0,0,1-2.15-.21,10.75,10.75,0,0,1-2.07-.63,11.28,11.28,0,0,1-1.91-1,10.72,10.72,0,0,1-3.05-3,11.28,11.28,0,0,1-1-1.91,10.75,10.75,0,0,1-.63-2.07,11.11,11.11,0,0,1-.21-2.15V54.57a11.11,11.11,0,0,1,.21-2.15,10.75,10.75,0,0,1,.63-2.07,11.28,11.28,0,0,1,1-1.91,10.72,10.72,0,0,1,3.05-3,11.28,11.28,0,0,1,1.91-1,10.75,10.75,0,0,1,2.07-.63A11.11,11.11,0,0,1,293.08,43.53Z"/><path class="cls-5" d="M293.08,43.53H418.27a11.11,11.11,0,0,1,2.15.21,10.75,10.75,0,0,1,2.07.63,11.28,11.28,0,0,1,1.91,1,11.56,11.56,0,0,1,1.68,1.37,11,11,0,0,1,1.37,1.68,11.28,11.28,0,0,1,1,1.91,10.75,10.75,0,0,1,.63,2.07,11.11,11.11,0,0,1,.21,2.15v51.55a11.11,11.11,0,0,1-.21,2.15,10.75,10.75,0,0,1-.63,2.07,11.28,11.28,0,0,1-1,1.91,11,11,0,0,1-1.37,1.68,11.56,11.56,0,0,1-1.68,1.37,11.28,11.28,0,0,1-1.91,1,10.75,10.75,0,0,1-2.07.63,11.11,11.11,0,0,1-2.15.21H293.08a11.11,11.11,0,0,1-2.15-.21,10.75,10.75,0,0,1-2.07-.63,11.28,11.28,0,0,1-1.91-1,10.72,10.72,0,0,1-3.05-3,11.28,11.28,0,0,1-1-1.91,10.75,10.75,0,0,1-.63-2.07,11.11,11.11,0,0,1-.21-2.15V54.57a11.11,11.11,0,0,1,.21-2.15,10.75,10.75,0,0,1,.63-2.07,11.28,11.28,0,0,1,1-1.91,10.72,10.72,0,0,1,3.05-3,11.28,11.28,0,0,1,1.91-1,10.75,10.75,0,0,1,2.07-.63A11.11,11.11,0,0,1,293.08,43.53Z"/><text class="cls-13" transform="translate(337.96 85.62)">User</text><text class="cls-8" transform="translate(603.88 82.74)">User</text><path class="cls-14" d="M550.81,43.53H676a11.14,11.14,0,0,1,2.16.21,10.75,10.75,0,0,1,2.07.63,11.28,11.28,0,0,1,1.91,1,11,11,0,0,1,1.67,1.37,11.11,11.11,0,0,1,1.38,1.68,11.28,11.28,0,0,1,1,1.91,11.47,11.47,0,0,1,.62,2.07,10.39,10.39,0,0,1,.22,2.15v51.55a10.39,10.39,0,0,1-.22,2.15,11.47,11.47,0,0,1-.62,2.07,11.28,11.28,0,0,1-1,1.91,11.11,11.11,0,0,1-1.38,1.68,11,11,0,0,1-1.67,1.37,11.28,11.28,0,0,1-1.91,1,10.75,10.75,0,0,1-2.07.63,11.14,11.14,0,0,1-2.16.21H550.81a11,11,0,0,1-2.15-.21,10.63,10.63,0,0,1-2.08-.63,11.68,11.68,0,0,1-1.91-1,10.86,10.86,0,0,1-3-3,10,10,0,0,1-1-1.91,10.75,10.75,0,0,1-.63-2.07,11.11,11.11,0,0,1-.21-2.15V54.57a11.11,11.11,0,0,1,.21-2.15,10.75,10.75,0,0,1,.63-2.07,10,10,0,0,1,1-1.91,10.86,10.86,0,0,1,3-3,11.68,11.68,0,0,1,1.91-1,10.63,10.63,0,0,1,2.08-.63A11,11,0,0,1,550.81,43.53Z"/><path class="cls-15" d="M550.81,43.53H676a11.14,11.14,0,0,1,2.16.21,10.75,10.75,0,0,1,2.07.63,11.28,11.28,0,0,1,1.91,1,11,11,0,0,1,1.67,1.37,11.11,11.11,0,0,1,1.38,1.68,11.28,11.28,0,0,1,1,1.91,11.47,11.47,0,0,1,.62,2.07,10.39,10.39,0,0,1,.22,2.15v51.55a10.39,10.39,0,0,1-.22,2.15,11.47,11.47,0,0,1-.62,2.07,11.28,11.28,0,0,1-1,1.91,11.11,11.11,0,0,1-1.38,1.68,11,11,0,0,1-1.67,1.37,11.28,11.28,0,0,1-1.91,1,10.75,10.75,0,0,1-2.07.63,11.14,11.14,0,0,1-2.16.21H550.81a11,11,0,0,1-2.15-.21,10.63,10.63,0,0,1-2.08-.63,11.68,11.68,0,0,1-1.91-1,10.86,10.86,0,0,1-3-3,10,10,0,0,1-1-1.91,10.75,10.75,0,0,1-.63-2.07,11.11,11.11,0,0,1-.21-2.15V54.57a11.11,11.11,0,0,1,.21-2.15,10.75,10.75,0,0,1,.63-2.07,10,10,0,0,1,1-1.91,10.86,10.86,0,0,1,3-3,11.68,11.68,0,0,1,1.91-1,10.63,10.63,0,0,1,2.08-.63A11,11,0,0,1,550.81,43.53Z"/><text class="cls-16" transform="translate(594.8 87.06)">Bird</text><line class="cls-17" x1="429.31" y1="79.73" x2="535.18" y2="80.32"/><polygon points="538.96 80.34 533.91 82.83 535.18 80.32 533.94 77.79 538.96 80.34"/><polygon class="cls-17" points="538.96 80.34 533.91 82.83 535.18 80.32 533.94 77.79 538.96 80.34"/><rect class="cls-3" x="440.33" y="38.85" width="87.06" height="28.06"/><text class="cls-18" transform="translate(450.4 46.05)">User make the Bird</text><text/><text class="cls-18" transform="translate(527.62 46.05)"> </text><text class="cls-18" transform="translate(451.29 55.4)">fly up and down by </text><text class="cls-18" transform="translate(519.28 55.4)"> </text><text class="cls-18" transform="translate(521.47 55.4)"> </text><text class="cls-18" transform="translate(437.44 64.75)">pressing the space bar key</text><text class="cls-19" transform="translate(949.97 315.85)"> </text><path class="cls-14" d="M781,45.21H906.69a10.53,10.53,0,0,1,2.1.21,11,11,0,0,1,2,.61,11.46,11.46,0,0,1,1.86,1,10.57,10.57,0,0,1,3,3,10.43,10.43,0,0,1,1,1.86,10.31,10.31,0,0,1,.61,2,10.61,10.61,0,0,1,.21,2.1v50.37a10.53,10.53,0,0,1-.21,2.1,10.31,10.31,0,0,1-.61,2,10.1,10.1,0,0,1-1,1.86,10.57,10.57,0,0,1-3,3,10.1,10.1,0,0,1-1.86,1,10.31,10.31,0,0,1-2,.61,10.53,10.53,0,0,1-2.1.21H781a10.53,10.53,0,0,1-2.1-.21,10.31,10.31,0,0,1-2-.61,10.43,10.43,0,0,1-1.86-1,10.57,10.57,0,0,1-3-3,10.1,10.1,0,0,1-1-1.86,11,11,0,0,1-.61-2,10.53,10.53,0,0,1-.21-2.1V56a10.61,10.61,0,0,1,.21-2.1,11,11,0,0,1,.61-2A10.43,10.43,0,0,1,772,50a10.57,10.57,0,0,1,3-3,11.89,11.89,0,0,1,1.86-1,11,11,0,0,1,2-.61A10.53,10.53,0,0,1,781,45.21Z"/><path class="cls-15" d="M781,45.21H906.69a10.53,10.53,0,0,1,2.1.21,11,11,0,0,1,2,.61,11.46,11.46,0,0,1,1.86,1,10.57,10.57,0,0,1,3,3,10.43,10.43,0,0,1,1,1.86,10.31,10.31,0,0,1,.61,2,10.61,10.61,0,0,1,.21,2.1v50.37a10.53,10.53,0,0,1-.21,2.1,10.31,10.31,0,0,1-.61,2,10.1,10.1,0,0,1-1,1.86,10.57,10.57,0,0,1-3,3,10.1,10.1,0,0,1-1.86,1,10.31,10.31,0,0,1-2,.61,10.53,10.53,0,0,1-2.1.21H781a10.53,10.53,0,0,1-2.1-.21,10.31,10.31,0,0,1-2-.61,10.43,10.43,0,0,1-1.86-1,10.57,10.57,0,0,1-3-3,10.1,10.1,0,0,1-1-1.86,11,11,0,0,1-.61-2,10.53,10.53,0,0,1-.21-2.1V56a10.61,10.61,0,0,1,.21-2.1,11,11,0,0,1,.61-2A10.43,10.43,0,0,1,772,50a10.57,10.57,0,0,1,3-3,11.89,11.89,0,0,1,1.86-1,11,11,0,0,1,2-.61A10.53,10.53,0,0,1,781,45.21Z"/><text class="cls-16" transform="translate(804.75 75.55)">Optional</text><text class="cls-16" transform="translate(802.99 100.73)">speed++</text><path class="cls-20" d="M651.75,273.76H776.93a11.12,11.12,0,0,1,2.15.22,10.63,10.63,0,0,1,2.08.63,10.33,10.33,0,0,1,1.91,1,11,11,0,0,1,3,3,10.33,10.33,0,0,1,1,1.91,10.75,10.75,0,0,1,.63,2.07,11.22,11.22,0,0,1,.21,2.16v51.54a11.14,11.14,0,0,1-.21,2.16,10.75,10.75,0,0,1-.63,2.07,10,10,0,0,1-1,1.91,11,11,0,0,1-1.37,1.67,10.84,10.84,0,0,1-3.58,2.4,11.33,11.33,0,0,1-2.08.62,10.39,10.39,0,0,1-2.15.22H651.75a10.42,10.42,0,0,1-2.16-.22,11.47,11.47,0,0,1-2.07-.62,11.28,11.28,0,0,1-1.91-1,11.66,11.66,0,0,1-1.67-1.38,11,11,0,0,1-1.38-1.67,11.28,11.28,0,0,1-1-1.91,12.37,12.37,0,0,1-.63-2.07,11.14,11.14,0,0,1-.21-2.16V284.81a11.22,11.22,0,0,1,.21-2.16,12.37,12.37,0,0,1,.63-2.07,11.68,11.68,0,0,1,1-1.91,11.22,11.22,0,0,1,3.05-3,10,10,0,0,1,1.91-1,10.75,10.75,0,0,1,2.07-.63A11.15,11.15,0,0,1,651.75,273.76Z"/><path class="cls-21" d="M651.75,273.76H776.93a11.12,11.12,0,0,1,2.15.22,10.63,10.63,0,0,1,2.08.63,10.33,10.33,0,0,1,1.91,1,11,11,0,0,1,3,3,10.33,10.33,0,0,1,1,1.91,10.75,10.75,0,0,1,.63,2.07,11.22,11.22,0,0,1,.21,2.16v51.54a11.14,11.14,0,0,1-.21,2.16,10.75,10.75,0,0,1-.63,2.07,10,10,0,0,1-1,1.91,11,11,0,0,1-1.37,1.67,10.84,10.84,0,0,1-3.58,2.4,11.33,11.33,0,0,1-2.08.62,10.39,10.39,0,0,1-2.15.22H651.75a10.42,10.42,0,0,1-2.16-.22,11.47,11.47,0,0,1-2.07-.62,11.28,11.28,0,0,1-1.91-1,11.66,11.66,0,0,1-1.67-1.38,11,11,0,0,1-1.38-1.67,11.28,11.28,0,0,1-1-1.91,12.37,12.37,0,0,1-.63-2.07,11.14,11.14,0,0,1-.21-2.16V284.81a11.22,11.22,0,0,1,.21-2.16,12.37,12.37,0,0,1,.63-2.07,11.68,11.68,0,0,1,1-1.91,11.22,11.22,0,0,1,3.05-3,10,10,0,0,1,1.91-1,10.75,10.75,0,0,1,2.07-.63A11.15,11.15,0,0,1,651.75,273.76Z"/><path class="cls-20" d="M651.75,384.21H776.93a11.11,11.11,0,0,1,2.15.21,12.2,12.2,0,0,1,2.08.63,11.68,11.68,0,0,1,1.91,1,11.22,11.22,0,0,1,3,3.05,10,10,0,0,1,1,1.91,10.75,10.75,0,0,1,.63,2.07,11.14,11.14,0,0,1,.21,2.16V446.8a11.22,11.22,0,0,1-.21,2.16,10.75,10.75,0,0,1-.63,2.07,10.33,10.33,0,0,1-1,1.91,11,11,0,0,1-3,3,10.33,10.33,0,0,1-1.91,1,10.63,10.63,0,0,1-2.08.63,11.11,11.11,0,0,1-2.15.21H651.75a11.14,11.14,0,0,1-2.16-.21,10.75,10.75,0,0,1-2.07-.63,10,10,0,0,1-1.91-1,11.22,11.22,0,0,1-3.05-3,11.68,11.68,0,0,1-1-1.91,12.37,12.37,0,0,1-.63-2.07,11.22,11.22,0,0,1-.21-2.16V395.26a11.14,11.14,0,0,1,.21-2.16,12.37,12.37,0,0,1,.63-2.07,11.28,11.28,0,0,1,1-1.91,11.44,11.44,0,0,1,3.05-3.05,11.28,11.28,0,0,1,1.91-1,12.37,12.37,0,0,1,2.07-.63A11.14,11.14,0,0,1,651.75,384.21Z"/><path class="cls-21" d="M651.75,384.21H776.93a11.11,11.11,0,0,1,2.15.21,12.2,12.2,0,0,1,2.08.63,11.68,11.68,0,0,1,1.91,1,11.22,11.22,0,0,1,3,3.05,10,10,0,0,1,1,1.91,10.75,10.75,0,0,1,.63,2.07,11.14,11.14,0,0,1,.21,2.16V446.8a11.22,11.22,0,0,1-.21,2.16,10.75,10.75,0,0,1-.63,2.07,10.33,10.33,0,0,1-1,1.91,11,11,0,0,1-3,3,10.33,10.33,0,0,1-1.91,1,10.63,10.63,0,0,1-2.08.63,11.11,11.11,0,0,1-2.15.21H651.75a11.14,11.14,0,0,1-2.16-.21,10.75,10.75,0,0,1-2.07-.63,10,10,0,0,1-1.91-1,11.22,11.22,0,0,1-3.05-3,11.68,11.68,0,0,1-1-1.91,12.37,12.37,0,0,1-.63-2.07,11.22,11.22,0,0,1-.21-2.16V395.26a11.14,11.14,0,0,1,.21-2.16,12.37,12.37,0,0,1,.63-2.07,11.28,11.28,0,0,1,1-1.91,11.44,11.44,0,0,1,3.05-3.05,11.28,11.28,0,0,1,1.91-1,12.37,12.37,0,0,1,2.07-.63A11.14,11.14,0,0,1,651.75,384.21Z"/><text class="cls-11" transform="translate(693.16 306.5)">Game</text><text class="cls-11" transform="translate(696.51 325.21)">Ends</text><text class="cls-11" transform="translate(675.88 417.3)">Bird collides</text><text class="cls-11" transform="translate(672.93 436.01)">with obstacle</text><line class="cls-17" x1="714.33" y1="347.4" x2="714.33" y2="378.41"/><polygon points="714.33 382.18 711.82 377.15 714.33 378.41 716.85 377.15 714.33 382.18"/><polygon class="cls-17" points="714.33 382.18 711.82 377.15 714.33 378.41 716.85 377.15 714.33 382.18"/><path class="cls-17" d="M711.21,266.57V237.79m2.88,0v28.78"/><rect class="cls-3" x="253.98" y="146.06" width="203.61" height="13.67"/><polygon class="cls-9" points="282.04 345.71 580.63 345.71 595.01 360.1 595.01 554.36 296.43 554.36 282.04 539.97 282.04 345.71"/><polygon class="cls-22" points="282.04 345.71 580.63 345.71 595.01 360.1 595.01 554.36 296.43 554.36 282.04 539.97 282.04 345.71"/><polygon class="cls-23" points="282.04 345.71 580.63 345.71 595.01 360.1 296.43 360.1 282.04 345.71"/><polygon class="cls-24" points="282.04 345.71 296.43 360.1 296.43 554.36 282.04 539.97 282.04 345.71"/><path class="cls-22" d="M296.43,360.1H595M296.43,554.36V360.1L282,345.71"/><text class="cls-25" transform="translate(334.56 468.39)">Obstacle move along with the ground and gets</text><text class="cls-25" transform="translate(415.53 482.06)">spawn random</text><rect class="cls-3" x="805.82" y="238.87" width="170.52" height="28.06"/><text class="cls-25" transform="translate(976.19 249.66)"> </text><text/><line class="cls-17" x1="691.07" y1="86.7" x2="758.43" y2="86.7"/><polygon points="762.21 86.7 757.17 89.22 758.43 86.7 757.17 84.18 762.21 86.7"/><polygon class="cls-17" points="762.21 86.7 757.17 89.22 758.43 86.7 757.17 84.18 762.21 86.7"/><rect class="cls-3" x="752.58" y="131.67" width="226.64" height="19.43"/><text class="cls-18" transform="translate(752.84 138.86)">Could make the bird move faster or the back ground move faster</text><text class="cls-18" transform="translate(978.95 138.86)"> </text><text class="cls-18" transform="translate(824.62 148.93)">to increase the dif</text><text class="cls-18" transform="translate(886.95 148.93)">ficulty</text></g></svg>