<?xml version="1.0" encoding="utf-8"?>
<!-- Generator: Adobe Illustrator 26.0.1, SVG Export Plug-In . SVG Version: 6.00 Build 0)  -->
<svg version="1.1" id="Layer_1" xmlns="http://www.w3.org/2000/svg" xmlns:xlink="http://www.w3.org/1999/xlink" x="0px" y="0px"
	 viewBox="0 0 60 60" style="enable-background:new 0 0 60 60;" xml:space="preserve">
<style type="text/css">
	.st0{opacity:0.4;fill:#DEF2F1;}
</style>
<path class="st0" d="M39.6,9.4c-0.4,0-0.8,0.2-1,0.5c-0.2,0.5,0,1,0.4,1.3c5.7,3.2,9.6,9.4,9.6,16.6c0,8-4.9,14.9-11.8,17.6v-7.9
	c1.2-0.4,2.1-1.5,2.1-2.9c0-1.1-0.6-2.1-1.5-2.6c0.7-6.8,3.8-5,3.8-7.2v-1.3c0-3.3-7.4-13.9-10.9-14.1c-0.2,0-0.4,0-0.6,0
	c-3.5,0.3-10.9,10.9-10.9,14.1v1.3c0,2.2,3.1,0.4,3.8,7.2c-0.9,0.5-1.5,1.5-1.5,2.6c0,1.4,0.9,2.5,2.1,2.9v7.9
	c-6.9-2.8-11.8-9.6-11.8-17.6c0-7.1,3.9-13.3,9.6-16.6c0.5-0.3,0.6-0.8,0.4-1.3c-0.2-0.5-0.9-0.7-1.3-0.4
	C13.7,13.1,9.4,19.9,9.4,27.8c0,9.8,6.7,18.1,15.7,20.3v-8.9c0.6,0.2,1.3,0.4,1.9,0.5v10.6c-11-1.5-19.5-11-19.5-22.5
	c0-2.8,0.5-5.5,1.4-8c0.2-0.5,0-1-0.5-1.3c-0.5-0.2-1.1,0-1.3,0.6c-1,2.7-1.5,5.6-1.5,8.7C5.6,41.1,16,52,29,52.5V40
	c0.6,0,1.3,0,2,0v12.5C44,52,54.4,41.1,54.4,27.8c0-3.1-0.5-6-1.5-8.7c-0.2-0.5-0.8-0.8-1.3-0.6c-0.5,0.2-0.7,0.8-0.5,1.3
	c0.9,2.5,1.4,5.2,1.4,8c0,11.5-8.5,21.1-19.5,22.5V39.7c0.7-0.1,1.3-0.3,1.9-0.5v8.9c9-2.2,15.7-10.5,15.7-20.3
	c0-7.9-4.3-14.7-10.6-18.3C39.9,9.4,39.7,9.4,39.6,9.4z M24.1,32.6c1.1,0,2,0.9,2,2c0,1.1-0.9,2-2,2s-2-0.9-2-2S23,32.6,24.1,32.6z
	 M35.9,32.6c1.1,0,2,0.9,2,2c0,1.1-0.9,2-2,2c-1.1,0-2-0.9-2-2C33.9,33.5,34.8,32.6,35.9,32.6z"/>
</svg>
