<?xml version="1.0" encoding="utf-8"?>
<!-- Generator: Adobe Illustrator 26.0.1, SVG Export Plug-In . SVG Version: 6.00 Build 0)  -->
<svg version="1.1" id="Layer_1" xmlns="http://www.w3.org/2000/svg" xmlns:xlink="http://www.w3.org/1999/xlink" x="0px" y="0px"
	 viewBox="0 0 60 60" style="enable-background:new 0 0 60 60;" xml:space="preserve">
<style type="text/css">
	.st0{opacity:0.4;fill:#DEF2F1;}
</style>
<path class="st0" d="M54.3,2.8c-0.2-0.2-0.5-0.4-0.9-0.4H6.6c-0.3,0-0.7,0.1-0.9,0.4C5.4,3,5.3,3.4,5.4,3.7L9.6,51
	c0,0.5,0.4,0.9,0.9,1l19.2,5.5c0.1,0,0.2,0,0.3,0s0.2,0,0.3,0l19.2-5.5c0.5-0.1,0.8-0.6,0.9-1l4.2-47.3C54.7,3.4,54.6,3,54.3,2.8z
	 M44.2,19.1H21.6l0.5,6.1h21.5l-1.6,18.1L30,46.9l-0.1,0l-11.9-3.6l-0.7-7.4h5.8l0.3,2.9l6.7,1.4l6.5-1.4l0.7-7.7H16.9l-1.6-17.8
	h29.5L44.2,19.1z"/>
</svg>
