<svg id="Layer_1" data-name="Layer 1" xmlns="http://www.w3.org/2000/svg" xmlns:xlink="http://www.w3.org/1999/xlink" viewBox="0 0 71.1 70.33"><defs><style>.cls-1,.cls-2{fill:none;stroke-miterlimit:10;stroke-width:2.83px;}.cls-1{stroke:url(#linear-gradient);}.cls-2{stroke:#f6f6f6;}.cls-3{font-size:18.33px;fill:#fff;font-family:MyriadPro-Regular, Myriad Pro;}.cls-4{letter-spacing:0em;}</style><linearGradient id="linear-gradient" x1="3.17" y1="36.79" x2="69.18" y2="36.79" gradientUnits="userSpaceOnUse"><stop offset="0" stop-color="#00a9e8"/><stop offset="0.05" stop-color="#009fdb"/><stop offset="0.29" stop-color="#0077a6"/><stop offset="0.51" stop-color="#00577c"/><stop offset="0.71" stop-color="#00415e"/><stop offset="0.88" stop-color="#00334c"/><stop offset="1" stop-color="#002e45"/></linearGradient></defs><path class="cls-1" d="M68.18,46.21,47.76,66.63a13.32,13.32,0,0,1-18.85,0L8.49,46.21a13.32,13.32,0,0,1,0-18.85L28.91,6.94a13.34,13.34,0,0,1,18.85,0L68.18,27.36" transform="translate(-3.17 -1.62)"/><path class="cls-2" d="M64.29,45,46.53,62.74a11.58,11.58,0,0,1-16.39,0L12.38,45a11.59,11.59,0,0,1,0-16.4L30.14,10.84a11.58,11.58,0,0,1,16.39,0L64.29,28.59" transform="translate(-3.17 -1.62)"/><text class="cls-3" transform="translate(31.86 41.08)">li<tspan class="cls-4" x="8.61" y="0">n</tspan><tspan x="18.71" y="0">tin</tspan></text></svg>