<svg id="Layer_1" data-name="Layer 1" xmlns="http://www.w3.org/2000/svg" xmlns:xlink="http://www.w3.org/1999/xlink" viewBox="0 0 126.47 63.2"><defs><style>.cls-1{fill:none;}.cls-2{fill:#fff;}.cls-3{clip-path:url(#clip-path);}.cls-4{fill:#eb5c29;}</style><clipPath id="clip-path" transform="translate(-1.26 -3.37)"><rect class="cls-1" x="82.52" y="56.61" width="4.55" height="7.24"/></clipPath></defs><circle class="cls-2" cx="66.33" cy="10.11" r="3.44"/><path class="cls-2" d="M67.59,8.32v1a4.16,4.16,0,0,1,0,8.32,4.16,4.16,0,0,1-2.94-7.1,4.13,4.13,0,0,1,2.94-1.22v-2a6.16,6.16,0,1,0,6.16,6.16,6.16,6.16,0,0,0-6.16-6.16Z" transform="translate(-1.26 -3.37)"/><circle class="cls-2" cx="27.08" cy="36.12" r="3.44"/><path class="cls-2" d="M28.34,34.33v1a4.16,4.16,0,0,1,0,8.32,4.16,4.16,0,0,1-2.94-7.1,4.13,4.13,0,0,1,2.94-1.22v-2a6.16,6.16,0,1,0,6.16,6.16,6.16,6.16,0,0,0-6.16-6.16Z" transform="translate(-1.26 -3.37)"/><path class="cls-2" d="M14.46,43.05a2.83,2.83,0,0,0,1.86-.57A1.8,1.8,0,0,0,17,41a2.26,2.26,0,0,0-.17-.88,2,2,0,0,0-.49-.7,4.29,4.29,0,0,0-1-.65c-.92-.45-1.38-.88-1.38-1.3a.79.79,0,0,1,.25-.61,1,1,0,0,1,.69-.23,2.4,2.4,0,0,1,1.42.48L16.68,36a3,3,0,0,0-1.84-.46,2.27,2.27,0,0,0-1.58.55,1.78,1.78,0,0,0-.61,1.39,2.18,2.18,0,0,0,.15.82,2,2,0,0,0,.45.64,5.09,5.09,0,0,0,1.12.69,3.49,3.49,0,0,1,1.1.75,1.13,1.13,0,0,1,.27.71c0,.53-.38.79-1.14.79a2.61,2.61,0,0,1-1.49-.53l-.48,1.15A3.33,3.33,0,0,0,14.46,43.05Zm-5.17,0a2.87,2.87,0,0,0,1.86-.57A1.79,1.79,0,0,0,11.84,41a2.09,2.09,0,0,0-.17-.88,1.89,1.89,0,0,0-.49-.7,4.19,4.19,0,0,0-1-.65c-.92-.45-1.38-.88-1.38-1.3A.82.82,0,0,1,9,36.89a1,1,0,0,1,.69-.23,2.43,2.43,0,0,1,1.43.48L11.51,36a3,3,0,0,0-1.84-.46,2.27,2.27,0,0,0-1.58.55,1.79,1.79,0,0,0-.62,1.39,2.18,2.18,0,0,0,.16.82,1.79,1.79,0,0,0,.44.64,5.5,5.5,0,0,0,1.13.69,3.62,3.62,0,0,1,1.1.75,1.17,1.17,0,0,1,.26.71c0,.53-.38.79-1.13.79a2.66,2.66,0,0,1-1.5-.53l-.47,1.15A3.29,3.29,0,0,0,9.29,43.05ZM4.58,35.57A3,3,0,0,0,2.2,36.64a4,4,0,0,0-.93,2.69,4.08,4.08,0,0,0,.84,2.72,2.89,2.89,0,0,0,2.35,1,3,3,0,0,0,2.31-.83l-.6-1a1.93,1.93,0,0,1-1.6.73,1.74,1.74,0,0,1-1.43-.68,2.91,2.91,0,0,1-.54-1.85,3.07,3.07,0,0,1,.58-1.92,1.8,1.8,0,0,1,1.48-.75,1.9,1.9,0,0,1,1.39.43l.52-1.07A3.45,3.45,0,0,0,4.58,35.57Z" transform="translate(-1.26 -3.37)"/><circle class="cls-2" cx="48.56" cy="57.04" r="3.44"/><path class="cls-2" d="M49.82,55.25v1a4.16,4.16,0,0,1,0,8.32,4.16,4.16,0,0,1-2.94-7.1,4.13,4.13,0,0,1,2.94-1.22v-2A6.16,6.16,0,1,0,56,60.41a6.16,6.16,0,0,0-6.16-6.16Z" transform="translate(-1.26 -3.37)"/><path class="cls-2" d="M80.26,56.61h-.68l-1.53,4.88-1.57-4.88H75.8l-1.46,7.24h1.24l.78-3.9,1.46,4h.46l1.46-4,.75,3.9h1.24Zm-6.12,1.14V56.61h-6v1.14h2.3v6.1h1.29v-6.1Zm-6.83,6.1V56.61H66v2.84H63.16V56.61H61.87v7.24h1.29V60.59H66v3.26Z" transform="translate(-1.26 -3.37)"/><g class="cls-3"><polygon class="cls-2" points="85.82 60.48 85.82 59.34 82.55 59.34 82.55 53.24 81.26 53.24 81.26 60.48 85.82 60.48"/></g><path class="cls-4" d="M35,6.2H33.26l-1.79,5-2-5H27.73L30,11.85a6,6,0,0,1,.54,2c0,.65-.65,1-2,1v1.5a4.34,4.34,0,0,0,2.08-.48,2.35,2.35,0,0,0,1.16-1.2ZM25.6,3.53h-.93l-2.11,6.7-2.15-6.7h-.94l-2,10h1.7l1.08-5.37,2,5.49h.63l2-5.49,1,5.37h1.71Z" transform="translate(-1.26 -3.37)"/><path class="cls-4" d="M47.42,50.49q7.35,0,11.71-3.57A11.27,11.27,0,0,0,63.5,37.8a14.3,14.3,0,0,0-1-5.58,12.9,12.9,0,0,0-3.08-4.39,28.44,28.44,0,0,0-6.6-4.12q-8.67-4.23-8.68-8.15a5.11,5.11,0,0,1,1.54-3.84A6,6,0,0,1,50,10.24a15.22,15.22,0,0,1,9,3l2.46-7q-3.7-3-11.6-2.95a14.3,14.3,0,0,0-9.94,3.48A11.31,11.31,0,0,0,36,15.62a13.3,13.3,0,0,0,1,5.17,11.74,11.74,0,0,0,2.8,4,33.36,33.36,0,0,0,7.07,4.32q5.24,2.63,6.92,4.74a7.07,7.07,0,0,1,1.68,4.45q0,5-7.13,5A16.39,16.39,0,0,1,38.9,40l-3,7.25A20.82,20.82,0,0,0,47.42,50.49Z" transform="translate(-1.26 -3.37)"/><path class="cls-4" d="M89.67,47a5.22,5.22,0,0,0,1.32.13,3.67,3.67,0,0,0,2.31-.66,2.16,2.16,0,0,0,.86-1.8,2.33,2.33,0,0,0-.48-1.48,3.63,3.63,0,0,0-1.57-1,7.41,7.41,0,0,1-1.42-.69.72.72,0,0,1-.33-.57c0-.53.34-.8,1-.8a2.63,2.63,0,0,1,1.76.54l.56-1.49a5.24,5.24,0,0,0-2.43-.58,3.48,3.48,0,0,0-2.08.59,2,2,0,0,0-.82,1.67q0,1.6,2.13,2.49a4.91,4.91,0,0,1,1.32.71,1,1,0,0,1,.34.77c0,.53-.37.8-1.12.8a3,3,0,0,1-2-.69l-.69,1.54A6.77,6.77,0,0,0,89.67,47Zm-5.1-1.69c0,1.22.44,1.82,1.31,1.82a1.58,1.58,0,0,0,1.53-.85c-.61-.19-.91-.8-.91-1.82V35.22l-1.93.46Zm-4.65,0c0,1.22.43,1.82,1.31,1.82a1.56,1.56,0,0,0,1.52-.85c-.6-.19-.91-.8-.91-1.82V35.22l-1.92.46ZM77.34,47V38.76h-3v1.58h1.06V47ZM75.59,35.89a1.14,1.14,0,0,0,0,1.58,1.12,1.12,0,0,0,1.59,0,1.12,1.12,0,0,0-.8-1.91A1.09,1.09,0,0,0,75.59,35.89ZM73.79,47l-3.36-5.13,2.79-3.13H70.9l-2.75,3.17V35.22l-1.93.46V47h1.93V44.26l.93-1L71.5,47Z" transform="translate(-1.26 -3.37)"/><path class="cls-2" d="M124.87,15.25a1.79,1.79,0,0,0,.42,1.27,1.61,1.61,0,0,0,1.22.45,3.83,3.83,0,0,0,1.22-.15V15.68a1.52,1.52,0,0,1-.83.24.73.73,0,0,1-.62-.23,1.35,1.35,0,0,1-.18-.8V12.57h1.46v-1H126.1V10l-1.23.46v1.08h-.62v1h.62Zm-4.16-2.73a1.65,1.65,0,0,1,1.23.39,1.89,1.89,0,0,1,.37,1.32,1.88,1.88,0,0,1-.38,1.29,1.57,1.57,0,0,1-1.22.4,1.24,1.24,0,0,1-.79-.27V12.87A1.1,1.1,0,0,1,120.71,12.52ZM121,17a2.59,2.59,0,0,0,1.91-.7,2.72,2.72,0,0,0,.7-2c0-1.85-.84-2.78-2.53-2.78a1.58,1.58,0,0,0-1.14.45v-.35h-1.23v7.36h1.23V16.73A2.33,2.33,0,0,0,121,17Zm-3.63-.1V11.58h-1.93v1h.68v4.28Zm-1.12-7.13a.66.66,0,0,0-.21.5.72.72,0,1,0,1.43,0,.66.66,0,0,0-.21-.5.71.71,0,0,0-1,0ZM115,11.67a1.92,1.92,0,0,0-1-.19,1.73,1.73,0,0,0-1.38.58v-.48h-1.24v5.29h1.24v-3a1.43,1.43,0,0,1,.33-.95,1,1,0,0,1,.76-.39,1.26,1.26,0,0,1,.73.22Zm-6.21-.19a2.86,2.86,0,0,0-2.12.77,2.74,2.74,0,0,0-.77,2,2.64,2.64,0,0,0,.71,2,2.57,2.57,0,0,0,1.93.72,4.38,4.38,0,0,0,1-.09,3,3,0,0,0,.94-.43l-.45-1a1.8,1.8,0,0,1-1.21.45c-1.06,0-1.59-.55-1.59-1.66a1.9,1.9,0,0,1,.41-1.29,1.37,1.37,0,0,1,1.11-.47,1.67,1.67,0,0,1,1.17.41l.52-.92A2.54,2.54,0,0,0,108.81,11.48ZM102.65,17a2.87,2.87,0,0,0,1.86-.57A1.79,1.79,0,0,0,105.2,15a2.28,2.28,0,0,0-.17-.89,1.89,1.89,0,0,0-.49-.7,4.19,4.19,0,0,0-1-.65c-.92-.45-1.38-.88-1.38-1.3a.82.82,0,0,1,.24-.61,1,1,0,0,1,.69-.23,2.43,2.43,0,0,1,1.43.48l.39-1.11A3,3,0,0,0,103,9.51a2.25,2.25,0,0,0-1.58.55,1.79,1.79,0,0,0-.62,1.39,2,2,0,0,0,.16.82,1.79,1.79,0,0,0,.44.64,5.65,5.65,0,0,0,1.12.69,3.37,3.37,0,0,1,1.1.75,1.13,1.13,0,0,1,.27.71c0,.53-.38.79-1.13.79a2.66,2.66,0,0,1-1.5-.53l-.47,1.15A3.29,3.29,0,0,0,102.65,17Zm-4.13-2.12A1,1,0,0,1,97.41,16c-.55,0-.82-.23-.82-.71,0-.64.48-1,1.46-1a2.11,2.11,0,0,1,.47.07Zm.41,1.9a.69.69,0,0,0,.48.2,1.44,1.44,0,0,0,.43-.06.76.76,0,0,0,.34-.33c-.28-.18-.42-.63-.42-1.33V14.12A2.9,2.9,0,0,0,99.19,12a2.44,2.44,0,0,0-1.77-.55,3.55,3.55,0,0,0-1.52.3l.27,1a2.66,2.66,0,0,1,1.16-.23c.79,0,1.18.31,1.18.93a2,2,0,0,0-.51-.07,3.18,3.18,0,0,0-2,.52,1.69,1.69,0,0,0-.69,1.44,1.55,1.55,0,0,0,.49,1.21,2,2,0,0,0,1.35.43,2.19,2.19,0,0,0,.87-.18,1.2,1.2,0,0,0,.58-.45A1.06,1.06,0,0,0,98.93,16.77ZM95,11.58H93.7l-1.36,3.23-1.27-3.23H89.72L92.11,17h.45ZM87.8,14.87A1,1,0,0,1,86.69,16c-.55,0-.83-.23-.83-.71,0-.64.49-1,1.46-1a2.18,2.18,0,0,1,.48.07Zm.4,1.9a.69.69,0,0,0,.48.2,1.4,1.4,0,0,0,.43-.06.71.71,0,0,0,.34-.33C89.17,16.4,89,16,89,15.25V14.12A2.9,2.9,0,0,0,88.46,12a2.42,2.42,0,0,0-1.77-.55,3.55,3.55,0,0,0-1.52.3l.27,1a2.68,2.68,0,0,1,1.17-.23c.78,0,1.18.31,1.18.93a2.13,2.13,0,0,0-.52-.07,3.2,3.2,0,0,0-2,.52,1.69,1.69,0,0,0-.69,1.44,1.55,1.55,0,0,0,.49,1.21,2,2,0,0,0,1.35.43,2.19,2.19,0,0,0,.87-.18,1.28,1.28,0,0,0,.59-.45A1,1,0,0,0,88.2,16.77Zm-8.6-.27a2.21,2.21,0,0,0,1.46.47,2.49,2.49,0,0,0,2-.7,3.16,3.16,0,0,0,.62-2.14V9.63H82.35v4.54a2.36,2.36,0,0,1-.26,1.24,1,1,0,0,1-.89.42c-.6,0-1-.22-1.06-.64H79A1.8,1.8,0,0,0,79.6,16.5Z" transform="translate(-1.26 -3.37)"/><rect class="cls-2" x="66.33" y="15.11" width="60.13" height="0.33"/><rect class="cls-2" y="41.12" width="27.17" height="0.33"/><rect class="cls-2" x="48.34" y="62.04" width="37.47" height="0.33"/></svg>